<?xml version="1.0" encoding="UTF-8"?>
<svg width="875px" height="155px" viewBox="0 0 875 155" version="1.1" xmlns="http://www.w3.org/2000/svg" xmlns:xlink="http://www.w3.org/1999/xlink">
    <!-- Generator: Sketch 58 (84663) - https://sketch.com -->
    <title>Dashwod</title>
    <desc>Created with Sketch.</desc>
    <g id="Page-1" stroke="none" stroke-width="1" fill="none" fill-rule="evenodd">
        <g id="Desktop-HD" transform="translate(-283.000000, -325.000000)" fill="#FFFFFF" fill-rule="nonzero">
            <path d="M382.125,437.1 C382.125,439.2 367.575,446.7 365.025,446.7 C363.975,446.7 363.075,446.85 362.025,446.85 C359.475,446.85 358.575,445.8 358.575,443.25 C358.575,440.13 359.814333,438.474667 361.609489,436.5264 L362.998611,435.040799 C365.045833,432.877083 368.4375,429.6 371.325,429.6 C373.425,429.6 381.375,433.8 381.825,435.9 C381.975,436.2 382.125,436.65 382.125,437.1 Z M496.425,360.9 C496.425,359.4 496.275,357.75 495.975,356.25 L495.434154,353.100418 C494.441797,347.417318 493.625,344.1875 489.525,338.55 C480.525,326.25 462.075,325.95 448.275,325.95 C443.208333,325.95 438.141667,325.95 433.075,326.1607 L431.175,326.25 C424.725,326.55 411.675,328.95 405.525,331.2 C399.225,333.6 392.025,334.05 385.275,336.6 C380.025,338.7 374.775,342.3 369.975,343.95 C367.125,345 364.575,346.95 362.025,348.6 L359.2326,350.3076 C355.503,352.578 351.735,354.81 347.775,356.85 C338.175,362.1 329.925,369.6 321.375,376.5 C309.225,386.55 287.325,415.35 284.775,431.85 C284.325,435.3 284.325,438.9 283.575,442.35 C283.275,443.85 283.125,445.35 283.125,447 C283.125,451.35 284.025,456.6 285.975,460.65 C287.775,464.1 287.625,465.75 290.325,469.35 C292.875,472.5 299.475,478.35 303.675,478.35 L305.175,478.35 C307.725,478.35 310.275,479.4 312.975,479.4 C314.625,479.4 316.125,478.8 317.775,478.8 C319.125,478.8 320.325,478.95 321.675,478.95 L322.725,478.95 C326.175,478.65 329.325,477.15 332.625,476.55 C336.3375,476 339.923958,474.567708 343.499913,473.87066 L344.475,473.7 C346.425,473.4 356.175,469.95 356.175,468.15 C356.175,467.55 355.725,467.25 355.125,467.25 C353.775,467.25 347.325,470.25 345.375,470.85 C341.475,472.2 336.075,473.4 331.875,473.4 C330.375,473.4 328.875,473.1 327.225,473.1 C325.725,473.1 324.225,473.7 322.725,473.7 C321.225,473.7 319.575,472.95 318.075,472.95 C316.425,472.95 314.925,473.25 313.275,473.25 C311.175,473.25 309.825,472.95 308.025,471.75 L307.350447,471.326761 C301.055063,467.340405 297.975,464.265254 297.975,456.15 C297.975,450.6 299.475,444 301.425,438.75 C302.475,435.9 303.975,433.2 304.725,430.2 C306.525,424.35 309.975,419.55 313.125,414.45 C317.475,407.55 321.675,400.65 326.325,393.9 C327.825,391.8 329.625,389.85 331.425,387.9 C334.125,385.05 338.025,382.2 339.825,378.6 C342.075,373.8 345.975,371.85 350.325,369.15 C356.025,365.7 360.375,360.75 365.625,356.55 C369.975,352.95 374.475,349.65 379.575,347.1 C384.375,344.7 389.625,343.95 394.425,341.7 C412.725,333.15 436.425,330 456.675,330 C462.825,330 472.275,331.8 477.825,334.35 C483.525,337.05 487.725,344.4 490.875,349.65 C492.225,352.05 492.225,354.9 492.225,357.6 C492.225,362.85 491.625,368.25 490.125,373.2 L488.94735,377.128124 C487.831371,380.803047 486.603947,384.473684 484.725,387.9 C480.375,396.15 474.225,403.95 467.625,410.55 C460.125,418.05 450.825,422.25 441.675,427.35 C431.025,433.2 418.725,436.35 406.725,436.35 L405.942317,436.347004 C404.166777,436.327032 402.198913,436.173913 401.025,435 C401.312755,431.834694 408.086745,427.427343 410.492454,425.616739 L410.775,425.4 C414.675,422.55 417.375,418.65 421.275,415.8 C427.125,411.6 432.225,406.65 436.575,400.8 C438.225,398.55 440.025,396.6 441.975,394.8 C443.925,393 446.025,391.5 447.675,389.55 C451.275,384.9 454.875,380.55 459.075,376.5 C462.41371,373.306452 464.207154,368.848595 468.397799,366.525108 L468.825,366.3 C472.425,364.5 475.725,360.9 477.225,357.15 C477.375,356.55 477.675,355.8 477.675,355.05 C477.675,353.25 476.025,352.65 474.525,352.65 C473.475,352.65 472.425,352.95 471.375,353.1 C466.222222,354.425 458.468519,363.263786 454.35397,367.278015 L454.125,367.5 C443.539286,377.807143 433.470918,388.372959 423.439504,399.077351 L419.627238,403.149222 C416.973216,405.948091 413.410315,409.516665 404.324224,418.42613 L393.825,428.7 C392.775,429.75 391.575,430.95 390.075,430.95 C386.175,430.95 378.675,423.3 371.475,423.3 C365.388559,423.3 360.422142,431.840175 356.846261,436.206367 L356.475,436.65 C354.675,438.75 354.075,440.7 354.075,443.4 C354.075,450 355.875,449.55 361.275,451.8 C361.575,451.95 362.025,451.95 362.325,451.95 C366.075,451.95 375.675,448.05 379.425,446.55 C383.025,445.05 386.025,442.65 389.325,440.7 C389.625,440.55 389.925,440.55 390.075,440.55 C392.475,440.55 396.525,444.15 400.575,444.15 C403.125,444.15 405.525,443.7 407.925,443.7 C409.125,443.7 410.475,443.85 411.675,443.85 C413.775,443.85 416.625,442.2 418.575,441.6 C419.925,441.15 421.275,441 422.775,440.7 C429.075,439.95 428.775,437.55 432.975,436.35 C437.475,435.15 441.075,432.6 444.975,430.5 C449.775,427.8 454.575,425.4 459.075,422.25 C464.625,418.2 470.025,413.85 474.825,409.05 C480.675,403.35 485.025,395.7 489.225,388.8 C491.325,385.5 491.025,381.75 492.825,378.6 C494.543182,375.736364 494.484607,372.59938 495.258499,369.449972 L495.375,369 C496.125,366.3 496.425,363.75 496.425,360.9 Z M534.975,409.05 C534.975,411.9 531.075,414.75 528.525,415.5 C525.825,416.25 524.175,417.9 522.225,419.7 C518.925,422.55 515.475,424.5 511.425,426.15 C507.375,427.95 503.175,429.45 499.125,431.4 C497.625,432.15 496.125,432.45 494.475,432.45 C493.425,432.45 490.725,431.55 490.725,430.2 C490.725,429.75 491.175,429.3 491.475,429 C493.125,427.2 493.575,424.8 495.525,423.3 C498.525,421.05 501.525,418.2 504.975,416.7 C508.8225,415.1325 511.587,411.805125 515.3262,410.190244 L515.925,409.95 C519.075,408.75 522.975,405.15 526.125,405.15 C527.83125,405.15 529.422656,405.494531 531.100195,405.580664 L531.825,405.6 C533.625,405.6 534.975,407.25 534.975,409.05 Z M573.525,423.9 C573.525,423.3 572.775,423 572.175,423 C570.075,423 565.125,425.55 563.025,426.6 C559.125,428.4 555.075,429.75 551.025,431.4 C547.425,432.9 544.125,434.85 540.375,435.6 C535.725,436.5 533.625,437.85 528.375,437.85 C526.125,437.85 523.875,436.05 523.875,433.65 C523.875,432.45 524.775,431.55 525.225,430.5 C525.975,428.55 526.275,428.55 528.225,427.5 C531.058333,425.8 533.088889,422.895833 535.453935,420.682948 L535.875,420.3 C537.075,419.25 537.525,418.05 537.525,416.55 C537.525,414.75 537.075,415.2 536.325,414.15 C536.325,412.8 539.175,411.15 539.175,407.1 C539.175,401.85 536.475,401.25 531.975,401.25 C527.775,401.25 523.725,401.4 519.525,402 C515.775,402.45 512.325,404.55 508.725,405.6 C502.794643,407.191071 497.282717,411.432207 491.920231,414.42303 L491.325,414.75 C487.125,417 483.525,420 479.625,422.55 C477.409615,424.073077 475.833284,425.979586 473.952173,427.679631 L473.475,428.1 C471.975,429.45 470.175,430.95 470.175,433.05 C470.175,434.25 470.775,435.6 471.225,436.65 C472.725,439.35 474.675,439.05 476.925,440.4 C478.875,441.3 479.325,442.35 481.725,442.35 C484.875,442.35 489.975,441.15 492.975,440.1 C496.875,438.75 501.075,439.05 504.675,436.8 C507.225,435.3 509.925,435.6 512.475,434.4 C512.775,434.25 513.075,434.1 513.375,434.1 C513.825,434.1 514.425,434.7 514.425,435.3 C514.425,435.75 514.275,436.35 514.275,436.8 C514.275,438 515.325,438.9 516.225,439.65 L516.682645,440.023865 C518.709721,441.709691 520.342241,443.4 523.275,443.4 C528.626786,443.4 533.56014,440.749936 538.747542,439.350184 L539.325,439.2 C543.675,438.15 547.875,436.05 552.075,434.55 C555.225,433.35 557.925,431.55 561.225,430.5 C563.325,429.75 565.275,428.7 567.375,427.8 C568.575,427.2 573.525,425.25 573.525,423.9 Z M652.575,423.75 C652.575,423.15 651.825,423.15 651.525,423.15 C650.025,423.15 648.825,423.75 647.625,424.35 C645.675,425.25 643.575,426 641.625,426.75 C639.825,427.35 638.325,428.25 636.675,428.85 C634.575,429.6 632.325,430.2 630.375,431.25 C628.425,432.15 626.325,433.05 624.375,433.65 C621.675,434.4 618.375,434.85 615.975,436.2 C613.725,437.55 610.575,437.55 608.025,437.55 L607.733881,437.541291 C606.375357,437.462247 604.425,436.836207 604.425,435.3 C604.425,434.7 604.875,434.4 605.175,433.95 C607.275,431.7 607.425,428.4 608.475,425.7 C609.225,424.05 609.225,422.4 609.225,420.6 C609.225,419.85 609.075,418.8 609.075,417.75 C609.075,415.65 609.225,413.55 610.125,412.05 C611.775,408.9 614.175,408.9 616.575,406.8 C618.879,404.64 622.84188,402.48 625.942142,401.381683 L626.618621,401.148971 C627.382407,400.874074 627.975,400.533333 627.975,399.6 C627.975,398.1 626.625,396 624.975,396 C619.425,396 605.925,400.95 602.025,404.85 C601.275,405.75 600.675,406.8 599.775,407.7 C596.925,410.1 590.325,412.5 586.875,414 C585.375,414.75 583.725,415.35 582.525,416.4 C581.625,417.15 581.025,417.45 579.975,417.9 L576.375,419.55 C574.725,420.3 561.825,427.05 561.525,427.5 L561.31875,427.875 C561.2625,427.9875 561.225,428.1 561.225,428.25 C561.225,428.85 562.125,429.15 562.725,429.15 C565.243902,429.15 583.570092,418.904536 588.643221,416.9197 L588.825,416.85 C590.325,416.25 591.975,415.8 593.625,415.05 C594.525,414.6 595.725,414 596.925,414 C597.675,414 597.975,414.45 597.975,415.2 C597.975,418.5 597.675,421.8 596.925,425.1 C596.505,427.48 595.039667,429.468 594.358333,431.917689 L594.225,432.45 C593.625,435.45 588.225,436.8 585.525,436.8 C582.975,436.8 580.575,435.75 578.025,435.75 C575.775,435.75 575.325,438.9 573.975,440.1 C572.925,441.15 572.325,442.05 572.325,443.7 C572.325,446.1 574.875,450.45 577.575,450.45 C578.775,450.45 579.975,449.55 581.325,449.4 C586.275,448.5 595.125,442.8 598.125,442.8 C601.575,442.8 605.025,441.75 608.625,441.75 C617.325,441.75 629.325,435.9 636.975,432 C638.925,430.95 641.025,429.9 643.275,429.3 C645.975,428.55 648.975,426.75 651.525,425.25 L651.724854,425.111808 C652.134184,424.815306 652.575,424.392857 652.575,423.75 Z M749.175,346.65 C747.825,348.3 747.375,349.35 746.625,351.15 C745.875,353.1 742.275,355.65 740.775,357.6 C738.525,360.3 735.225,361.8 733.275,364.65 C731.925,366.3 730.275,367.65 728.925,369.15 C727.425,370.95 725.025,371.7 723.375,373.5 L722.67477,374.311547 C721.260744,375.930062 720.177273,376.984091 717.975,378.15 C716.475,378.9 714.975,379.35 713.775,380.7 L713.588178,380.909486 C712.388633,382.216286 708.465,385.95 707.475,385.95 C707.325,385.95 707.175,385.65 707.175,385.5 C707.175,384.497727 709.08843,383.358781 709.784222,382.605006 L709.875,382.5 C711.075,381.15 711.225,379.65 713.025,378.75 C714.825,377.55 716.175,375.6 717.825,374.25 C720.688636,371.815909 721.91219,367.878409 724.757189,365.438106 L725.175,365.1 C729.525,361.65 743.775,346.65 748.125,346.65 L749.175,346.65 Z M765.525,424.05 C765.525,423.6 765.225,423.3 764.925,423.15 C763.275,423.15 761.625,424.05 760.425,424.5 L742.275,432 C738.225,433.65 734.025,435 729.975,436.5 L727.613889,437.388889 C726.058333,437.966667 724.525,438.5 722.925,438.9 C718.125,439.95 713.475,442.05 708.525,442.05 C706.125,442.05 704.025,441 704.025,438.3 C704.025,437.6125 704.151042,437.051042 704.634201,436.384549 L704.775,436.2 C706.875,433.35 709.425,432 711.525,428.55 C714.075,424.65 717.975,422.25 720.525,418.65 C721.125,417.9 721.575,417.15 721.575,416.1 C721.575,412.95 718.575,411.3 715.725,411.3 C713.175,411.3 710.925,412.2 708.675,413.4 L690.375,423.45 C687.015,425.41 683.393667,426.978 680.120778,429.2516 L679.425,429.75 C676.725,431.7 665.625,437.85 662.625,437.85 C662.325,437.85 662.025,437.7 662.025,437.4 C662.025,436.65 665.475,433.65 666.225,432 C667.275,429.6 669.525,427.8 671.325,426 C673.125,424.2 674.625,422.1 676.275,420.15 L678.335641,417.710641 C680.058673,415.683673 681.803571,413.678571 683.625,411.75 C688.125,407.1 691.725,401.7 697.125,397.95 C701.325,395.1 705.225,391.8 709.275,388.95 C713.475,385.95 717.375,382.95 721.275,379.65 C724.275,377.1 726.525,374.1 729.975,372 C732.375,370.65 733.725,368.25 736.125,366.9 C738.375,365.55 739.575,363.3 741.675,361.95 C747.075,358.65 750.075,353.1 755.175,349.5 C758.175,347.25 762.075,341.55 762.075,337.8 C762.075,335.4 761.025,332.85 758.325,332.85 C751.725,332.85 741.975,339 736.425,342.6 C732.472059,345.141176 729.449221,348.745329 725.73076,351.661673 L725.025,352.2 C720.975,355.2 717.975,359.4 714.825,363.3 C711.525,367.2 707.175,369.9 704.025,373.8 C700.725,377.85 698.175,382.2 693.975,385.5 C691.125,387.75 689.925,391.2 687.525,393.75 C685.575,396 684.075,398.4 681.675,400.2 C678.975,402.45 677.775,406.35 674.475,408 C672.675,409.05 671.325,410.4 669.675,411.6 C668.175,412.8 666.375,413.85 664.725,414.75 C658.425,418.2 652.125,421.5 645.675,424.65 L645.452519,424.768003 C644.076903,425.460208 639.825,427.129412 639.825,428.4 C639.825,429 640.725,429.3 641.325,429.3 C644.475,429.3 660.525,419.55 661.275,419.55 L661.35772,419.552705 C661.484504,419.564876 661.629545,419.631818 661.875,420 C661.725,421.65 659.025,424.35 657.825,425.55 C653.625,429.75 650.775,435.15 646.875,439.8 C646.275,440.4 645.675,441.15 645.675,442.2 C645.675,444.9 650.025,445.65 651.975,445.65 C656.325,445.65 658.125,443.55 661.725,442.35 C665.025,441.15 668.175,439.65 671.325,438 C674.475,436.5 677.025,434.1 680.175,432.45 C683.475,430.65 686.925,429.3 690.225,427.35 L691.090369,426.754995 C693.265114,425.275754 696.834677,423 698.925,423 C699.375,423 699.975,423.15 699.975,423.75 C699.975,425.7 693.525,429.45 693.075,434.4 C692.925,435.15 692.925,436.2 692.925,436.95 C692.925,438.75 693.225,440.55 693.975,442.05 C695.325,444.75 703.725,446.7 706.725,446.7 C713.325,446.7 719.475,443.1 725.925,441.9 C728.673214,441.321429 732.258291,438.511224 734.662794,438.311234 L734.925,438.3 C737.239286,438.3 741.227296,435.510459 743.930125,434.638728 L744.225,434.55 C746.260385,433.968462 761.259604,427.32774 763.683036,425.827026 L764.322656,425.4 C764.85,425.034375 765.525,424.5 765.525,424.05 Z M914.475,423.75 C914.475,423.3 914.325,423 913.875,423 C912.825,423 908.775,425.25 907.725,425.85 C904.575,427.65 898.275,429.15 894.675,429.15 C891.675,429.15 889.425,427.2 886.725,426 C882.675,424.2 884.475,416.4 882.975,414.15 C882.075,412.65 876.225,411.6 874.575,411.6 C870.825,411.6 869.025,414.9 865.875,416.4 C862.275,418.2 860.775,423.3 857.325,425.1 C853.725,426.9 851.175,430.65 847.275,432 C844.335,433.12 842.048333,435.416 839.195444,436.6928 L838.575,436.95 C836.025,438 833.475,439.65 830.475,439.65 C826.725,439.65 824.775,435.6 824.775,432.3 C824.775,431.55 824.925,430.65 825.225,429.9 C826.575,427.65 828.825,426.6 830.775,425.1 C833.325,423 835.725,420.9 838.425,418.95 L838.890134,418.620451 C840.514746,417.452637 843.225,415.303125 843.225,413.4 C843.225,411.45 840.675,411.45 839.325,411.45 C837.225,411.45 834.975,411.75 832.875,411.75 C829.425,411.75 815.925,426.45 808.575,428.4 C804.422727,429.545455 801.363843,432.877686 797.310969,434.3524 L796.144187,434.748717 C793.344512,435.722963 786.393293,438.3 784.725,438.3 L783.681445,438.298242 C782.660156,438.285937 781.725,438.1875 780.675,437.4 C780.075,436.95 779.025,435.9 779.025,435.15 C779.025,434.7 779.325,434.55 779.625,434.25 C781.125,433.35 781.875,430.65 783.375,429.15 L785.096386,427.484197 C789.917493,422.777289 798.525,413.919403 798.525,408.9 C798.525,405.9 795.675,404.25 792.975,404.25 C789.825,404.25 789.525,405.75 786.975,406.65 C783.825,407.7 780.525,408.9 777.825,410.85 C776.025,412.2 775.425,414.6 773.625,416.1 C770.325,418.65 766.425,420.75 762.975,423 C760.875,424.35 757.125,424.65 755.925,427.05 C755.775,427.2 755.775,427.5 755.775,427.65 C755.775,428.4 756.525,428.4 756.975,428.4 C760.275,428.4 771.525,421.2 775.575,419.4 C777.225,418.65 778.575,416.7 780.375,416.7 C780.525,416.7 780.975,416.85 780.975,417.15 C780.975,417.75 780.375,418.05 779.925,418.2 C779.325,418.95 778.875,419.85 778.425,420.6 C776.325,424.05 767.625,430.65 767.625,434.4 C767.625,435.75 768.825,436.35 768.825,437.25 C768.825,442.2 774.975,443.4 778.875,443.4 C782.175,443.4 786.225,442.65 789.075,441 C792.225,438.9 796.125,438.9 798.975,436.65 C800.625,435.45 808.425,431.7 810.075,431.7 C812.175,431.7 810.375,435.9 812.325,438.15 C814.125,440.25 815.175,442.35 818.025,443.25 C820.875,444 824.025,444.45 826.875,444.45 C834.525,444.45 839.025,439.65 845.475,437.4 C849.075,436.05 853.125,434.85 856.125,432.45 C858.525,430.5 860.925,429 863.925,427.65 C866.925,426.3 870.225,421.65 873.375,421.65 C874.725,421.65 875.925,423.3 875.925,424.5 L875.929859,424.858568 C875.963095,425.912585 876.189286,426.235714 877.275,427.05 C882.375,430.65 884.475,433.35 891.225,433.35 C893.578846,433.35 895.804882,432.327515 898.139065,432.170209 L898.725,432.15 C901.125,432.15 914.475,426.6 914.475,423.75 Z M1008.825,429.6 C1008.825,432.15 998.625,438.75 996.225,440.1 C994.725,441 992.925,441.3 991.275,441.3 C987.675,441.3 980.025,438.9 980.025,434.55 C980.025,431.94 982.267667,431.012 983.907617,429.462594 L984.075,429.3 C985.789286,427.585714 987.639626,426.687755 989.885172,426.346971 L990.225,426.3 C992.925,426 995.475,425.1 998.025,424.5 C999.075,424.2 1001.625,423 1002.375,423 C1003.125,423 1005.975,426.75 1006.875,427.5 C1007.625,428.1 1008.825,428.4 1008.825,429.6 Z M1013.325,417.75 C1013.325,418.05 1013.175,418.8 1012.725,418.8 C1011.975,418.8 1010.625,417.75 1010.625,416.85 C1010.625,415.95 1011.375,415.35 1012.275,415.35 C1013.175,415.35 1013.325,416.7 1013.325,417.75 Z M1047.375,424.2 C1047.375,423.15 1046.925,422.85 1045.875,422.85 C1045.005,422.85 1040.771,425.092667 1039.27025,425.648661 L1037.06557,426.441322 C1033.95682,427.545868 1030.76591,428.55 1027.575,428.55 C1024.125,428.55 1023.375,427.2 1021.275,424.95 C1020.525,424.2 1020.375,423.6 1020.375,422.7 C1020.375,421.65 1020.525,420.75 1020.675,419.7 C1020.825,417.75 1022.325,417.45 1022.325,415.65 C1022.325,415.05 1022.025,414.6 1021.875,414.15 C1021.575,413.25 1021.575,412.35 1021.575,411.45 C1021.575,405.9 1016.475,405.9 1012.575,405.9 C1008.825,405.9 1003.725,408 1002.225,411.45 L1002.07245,411.83535 C1001.5635,413.184 1000.605,416.1 999.525,416.1 C998.625,416.1 997.875,415.65 996.975,415.65 C989.775,415.65 982.725,418.05 976.875,422.25 C973.875,424.35 973.575,423.45 970.575,424.2 C967.875,424.8 964.725,424.95 962.025,424.95 C959.175,424.95 954.375,423.75 951.975,422.4 C949.206429,420.797143 949.835082,418.34498 949.460745,415.86855 L949.425,415.65 C949.125,413.55 947.625,411 945.225,411 C944.175,411 942.075,412.35 941.175,412.95 C940.125,413.7 939.825,414.45 939.825,415.65 C939.825,417.75 941.025,419.55 941.025,421.65 C941.025,424.2 938.175,426.9 936.525,428.7 L933.825,431.85 C930.675,435.6 925.425,439.65 920.475,439.65 C916.575,439.65 912.675,437.25 912.675,433.05 C912.675,430.65 913.425,428.25 915.525,427.05 C918.075,425.7 920.475,424.05 923.175,423 C925.725,421.95 928.575,421.5 931.275,420.45 C933.675,419.55 933.675,417.3 934.575,415.2 C934.875,414.75 935.025,414.15 935.025,413.55 C935.025,412.85 934.894333,412.542 934.267133,412.260133 L934.125,412.2 C933.825,412.05 930.225,411.15 930.075,411.15 C926.475,411.15 920.625,412.95 917.475,414.3 L916.704977,414.615018 C912.831336,416.184298 910.534091,416.927273 907.575,420.45 C906.225,422.25 904.275,423.6 903.225,425.7 C901.875,428.25 900.675,432.6 900.675,435.45 C900.675,441.6 911.175,445.05 916.275,445.05 C933.375,445.05 941.925,426.9 947.625,426.9 C952.425,426.9 957.075,429.45 962.025,429.45 C963.375,429.45 964.875,429.15 966.225,429.15 L966.513794,429.154974 C967.760969,429.199745 968.925,429.567857 968.925,431.1 C968.925,432.6 968.175,433.95 968.175,435.45 C968.175,443.1 980.175,446.55 986.325,446.55 L987.22212,446.546352 C990.65004,446.51544 993.951,446.256 997.125,444.6 C1000.575,442.65 1004.025,440.4 1006.875,437.7 C1008.525,436.05 1010.475,434.85 1011.975,433.2 L1012.31974,432.747263 C1012.91752,431.979592 1013.91786,430.8 1014.525,430.8 C1016.475,430.8 1018.425,431.7 1020.225,432 C1022.025,432.15 1023.975,432.45 1025.775,432.45 C1027.575,432.45 1029.225,432.15 1030.875,431.7 C1033.575,430.95 1036.125,430.05 1038.525,428.85 L1040.83503,427.864442 C1043.51512,426.71009 1047.375,424.953261 1047.375,424.2 Z M1091.625,416.55 C1091.625,417.99 1084.29828,421.5036 1082.38504,422.180515 L1082.175,422.25 C1079.175,423.15 1078.275,425.55 1075.575,426.6 L1071.09812,428.256507 C1065.1586,430.438512 1056.46773,433.5 1053.375,433.5 C1052.625,433.5 1051.275,433.2 1051.275,432.15 C1051.275,431.55 1051.725,431.25 1052.175,430.8 C1053.525,429.3 1052.325,428.85 1054.575,427.65 C1056.975,426.3 1058.925,424.35 1061.475,423.3 C1064.475,422.25 1066.275,419.55 1069.125,418.65 C1073.475,417.45 1077.525,414.6 1082.025,414.6 L1083.42092,414.601749 C1084.91939,414.61137 1086.60306,414.673907 1087.96263,415.080394 L1089.15223,415.472765 C1090.14756,415.80696 1091.625,416.334 1091.625,416.55 Z M1157.775,370.5 C1157.775,371.85 1156.875,372.9 1155.975,373.8 C1154.925,374.85 1154.475,376.2 1153.725,377.4 C1152.225,379.65 1143.075,388.35 1140.825,390 C1137.675,391.95 1136.025,394.2 1133.925,397.2 C1131.975,400.05 1126.875,403.2 1124.175,405.6 C1120.875,408.75 1118.025,411.9 1114.125,414.3 C1112.325,415.5 1111.575,418.8 1109.025,420.6 C1106.625,422.4 1105.125,424.8 1102.725,426.75 C1100.925,428.25 1099.575,431.4 1099.575,433.8 C1099.575,437.4 1102.725,437.4 1105.425,437.4 C1110.825,437.4 1116.675,436.35 1121.625,434.25 C1125.84375,432.5625 1130.32617,431.53418 1134.45428,429.558289 L1135.275,429.15 C1137.075,428.25 1138.875,427.35 1140.825,426.75 C1142.925,425.85 1145.025,425.4 1147.125,424.2 C1147.875,423.6 1148.925,423.15 1149.975,423.15 C1150.575,423.15 1151.475,423.45 1151.475,424.2 C1151.475,425.4 1148.625,426.3 1147.725,426.75 C1145.475,427.65 1143.525,429.15 1141.125,430.05 C1138.425,431.1 1135.875,432.6 1133.025,433.35 C1130.025,434.25 1127.475,436.05 1124.625,437.25 C1121.175,438.45 1117.575,439.2 1114.125,440.55 L1113.91135,440.609853 C1112.42271,440.983224 1105.97357,442.05 1105.125,442.05 C1102.125,442.05 1098.675,441.15 1096.125,439.8 C1092.075,437.55 1088.925,438.15 1086.975,433.35 C1086.525,432.15 1085.775,426.75 1084.575,426.75 C1083.225,426.75 1080.075,429 1078.725,429.75 L1077.62171,430.326356 C1071.83567,433.308667 1057.565,440.15 1053.225,440.85 C1048.575,441.45 1044.975,445.95 1040.175,445.95 C1036.725,445.95 1031.175,444 1031.175,439.95 C1031.175,435.9 1035.825,428.4 1039.875,427.05 C1043.475,426 1042.425,423.9 1044.975,422.7 C1047.975,421.5 1050.375,419.4 1053.375,418.2 C1059.675,415.8 1065.975,412.5 1072.875,411.75 C1078.125,411.15 1083.375,410.55 1088.475,410.55 C1090.575,410.55 1092.675,411 1094.775,411 C1096.125,411 1097.475,411 1098.825,410.85 C1101.075,410.4 1103.625,406.95 1105.125,405.3 C1111.725,397.8 1133.775,377.55 1141.875,373.35 C1144.425,372 1147.725,368.85 1150.575,368.55 C1151.625,368.55 1152.825,368.4 1154.025,368.4 L1154.44331,368.40571 C1155.81704,368.44589 1157.775,368.73871 1157.775,370.5 Z" id="Dashwod" style="mix-blend-mode: screen;"></path>
        </g>
    </g>
</svg>