<?xml version="1.0" encoding="UTF-8" standalone="no"?>
<svg
   xmlns:dc="http://purl.org/dc/elements/1.1/"
   xmlns:cc="http://creativecommons.org/ns#"
   xmlns:rdf="http://www.w3.org/1999/02/22-rdf-syntax-ns#"
   xmlns:svg="http://www.w3.org/2000/svg"
   xmlns="http://www.w3.org/2000/svg"
   xmlns:xlink="http://www.w3.org/1999/xlink"
   xmlns:sodipodi="http://sodipodi.sourceforge.net/DTD/sodipodi-0.dtd"
   xmlns:inkscape="http://www.inkscape.org/namespaces/inkscape"
   width="292.3324"
   height="397.19885"
   viewBox="-300 -295 292.3324 397.19885"
   id="svg2"
   version="1.1"
   inkscape:version="0.91 r13725"
   sodipodi:docname="tree.svg">
  <metadata
     id="metadata31">
    <rdf:RDF>
      <cc:Work
         rdf:about="">
        <dc:format>image/svg+xml</dc:format>
        <dc:type
           rdf:resource="http://purl.org/dc/dcmitype/StillImage" />
        <dc:title></dc:title>
      </cc:Work>
    </rdf:RDF>
  </metadata>
  <!-- pagecolor="transparent" -->
  <!-- bordercolor="#666666" -->
  <sodipodi:namedview
     bordercolor="transparent"
     borderopacity="1"
     objecttolerance="10"
     gridtolerance="10"
     guidetolerance="10"
     inkscape:pageopacity="0"
     inkscape:pageshadow="2"
     inkscape:window-width="1280"
     inkscape:window-height="756"
     id="namedview29"
     showgrid="false"
     inkscape:zoom="0.92761391"
     inkscape:cx="-90.379868"
     inkscape:cy="198.83809"
     inkscape:current-layer="svg2"
     fit-margin-top="0"
     fit-margin-left="0"
     fit-margin-right="0"
     fit-margin-bottom="0"
     pagecolor="#000000"
     inkscape:window-x="0"
     inkscape:window-y="0"
     inkscape:window-maximized="1" />
  <defs
     id="defs4" />
  <use
     height="100%"
     width="100%"
     transform="matrix(-0.00386148,-0.99999254,0.99999254,-0.00386148,-15.769148,-200.27113)"
     id="use5789"
     xlink:href="#g5194"
     y="0"
     x="0" />
  <use
     x="0"
     y="0"
     xlink:href="#g5194"
     id="use5775"
     transform="matrix(0.99999209,-0.00397798,0.00397798,0.99999209,60.601633,8.3290378)"
     width="100%"
     height="100%" />
  <use
     x="0"
     y="0"
     xlink:href="#g5194"
     id="use5931"
     transform="matrix(-0.50568095,0.86272057,-0.86272057,-0.50568095,-371.76809,-48.331791)"
     width="100%"
     height="100%" />
  <use
     x="0"
     y="0"
     xlink:href="#g5194"
     id="use5911"
     transform="matrix(0.73534286,0.67769528,-0.67769528,0.73534286,-174.03252,-42.8948)"
     width="100%"
     height="100%" />
  <use
     height="100%"
     width="100%"
     transform="matrix(0.37284391,0.92789408,-0.92789408,0.37284391,-210.22344,-25.795501)"
     id="use5913"
     xlink:href="#g5194"
     y="0"
     x="0" />
  <use
     x="0"
     y="0"
     xlink:href="#g5194"
     id="use5919"
     transform="matrix(0.64919835,-0.76061916,0.76061916,0.64919835,-51.216824,-207.99965)"
     width="100%"
     height="100%" />
  <use
     x="0"
     y="0"
     xlink:href="#g5194"
     id="use5895"
     transform="matrix(-0.99709584,0.07615711,-0.07615711,-0.99709584,-351.42,-227.0842)"
     width="100%"
     height="100%" />
  <use
     x="0"
     y="0"
     xlink:href="#g5194"
     id="use5887"
     transform="matrix(0.91351403,0.40680726,-0.40680726,0.91351403,-125.42035,-121.5338)"
     width="100%"
     height="100%" />
  <use
     x="0"
     y="0"
     xlink:href="#g5194"
     id="use5847"
     transform="matrix(0.98112554,0.19337186,-0.19337186,0.98112554,10.086718,-100.65416)"
     width="100%"
     height="100%" />
  <use
     height="100%"
     width="100%"
     transform="matrix(0.93158394,-0.36352636,0.36352636,0.93158394,41.964634,-198.17973)"
     id="use5835"
     xlink:href="#g5194"
     y="0"
     x="0" />
  <use
     height="100%"
     width="100%"
     transform="matrix(-0.53462186,0.84509139,-0.84509139,-0.53462186,-224.96121,-132.24376)"
     id="use5831"
     xlink:href="#g5194"
     y="0"
     x="0" />
  <use
     x="0"
     y="0"
     xlink:href="#g5194"
     id="use5839"
     transform="matrix(0.90753601,0.41997432,-0.41997432,0.90753601,-38.535731,-120.06482)"
     width="100%"
     height="100%" />
  <use
     height="100%"
     width="100%"
     transform="matrix(-0.79914566,-0.60113746,0.60113746,-0.79914566,-188.2572,-374.1774)"
     id="use5857"
     xlink:href="#g5194"
     y="0"
     x="0" />
  <use
     height="100%"
     width="100%"
     transform="matrix(-0.91615549,-0.40082311,0.40082311,-0.91615549,-226.34321,-340.99436)"
     id="use5861"
     xlink:href="#g5194"
     y="0"
     x="0" />
  <use
     height="100%"
     width="100%"
     transform="matrix(-0.86652175,-0.49913935,0.49913935,-0.86652175,-220.84688,-379.33497)"
     id="use5863"
     xlink:href="#g5194"
     y="0"
     x="0" />
  <use
     x="0"
     y="0"
     xlink:href="#g5194"
     id="use5867"
     transform="matrix(-0.37860549,0.92555817,-0.92555817,-0.37860549,-255.75794,-178.45361)"
     width="100%"
     height="100%" />
  <use
     height="100%"
     width="100%"
     transform="matrix(0.01620221,0.99986875,-0.99986875,0.01620221,-271.78053,-112.43105)"
     id="use5885"
     xlink:href="#g5194"
     y="0"
     x="0" />
  <use
     height="100%"
     width="100%"
     transform="matrix(-0.99968796,-0.02498039,0.02498039,-0.99968796,-326.09014,-296.36026)"
     id="use5877"
     xlink:href="#g5194"
     y="0"
     x="0" />
  <use
     height="100%"
     width="100%"
     transform="matrix(0.40772123,-0.91310648,0.91310648,0.40772123,-96.784894,-306.21069)"
     id="use5881"
     xlink:href="#g5194"
     y="0"
     x="0" />
  <use
     height="100%"
     width="100%"
     transform="matrix(-0.76098053,0.64877475,-0.64877475,-0.76098053,-290.43005,-172.59307)"
     id="use5875"
     xlink:href="#g5194"
     y="0"
     x="0" />
  <use
     height="100%"
     width="100%"
     transform="matrix(-0.80562608,-0.59242435,0.59242435,-0.80562608,-184.44865,-270.3257)"
     id="use5853"
     xlink:href="#g5194"
     y="0"
     x="0" />
  <use
     x="0"
     y="0"
     xlink:href="#g5194"
     id="use4971"
     transform="matrix(0.68792606,-0.72578078,0.72578078,0.68792606,18.650293,-107.2166)"
     width="100%"
     height="100%" />
  <path
     inkscape:connector-curvature="0"
     sodipodi:nodetypes="cccccccccccccccscccccccccccccccccccccccccccccccccccccccccccccsccccccccccccccccccccccccccccccccccccccccc"
     id="path4626"
     d="m -252.01749,29.36283 c 13.49288,6.83016 28.80805,3.69962 28.86162,-3.42479 18.29516,4.1053 36.06519,7.57989 44.63136,0 20.67175,-18.5825624 13.94987,-26.46211741 16.81114,-75.792201 0.60419,-6.928599 -12.14515,-7.546729 -23.2083,-8.63644 3.62241,-3.234283 -20.52083,-36.701437 -37.94365,-2.968248 11.73194,-27.966216 -5.30348,-20.592041 -24.82966,-7.790343 29.9478,-21.818517 -11.77725,-9.590258 -29.76238,-15.448536 19.56186,-5.770181 43.58985,7.044379 26.76824,-18.854812 27.7418,25.939426 7.27275,15.18879 41.66651,17.365773 11.46673,5.616502 23.57481,10.270124 31.24196,21.591094 l 17.10868,1.489049 2.23158,-45.415756 c -7.93996,-6.6897 -80.25404,-11.51303 -93.72588,-12.65686 81.61217,-3.46359 67.08228,4.02088 37.19282,-15.63492 -22.48985,2.22671 -36.70197,-9.54612 -33.30793,-8.64687 52.09219,13.80198 24.455,-5.61476 -1.65331,-21.13397 6.05874,2.9459 28.41134,7.23874 33.47353,20.10207 6.10969,6.29352 10.59736,14.21051 22.31567,14.8904 8.42875,8.5228 22.07847,12.80798 36.44895,13.40138 l 1.48771,-34.99247 c -14.73229,-10.18903 -30.42485,-10.30671 -40.91208,-2.97809 11.94416,-11.16781 -16.42057,-6.70068 -35.70509,-17.86848 17.27868,4.48121 34.50111,8.79349 49.83835,7.44519 8.43037,-1.49629 18.34845,0.79158 26.77882,5.21165 l 1.48771,-30.52534 c -38.49262,0.40683 -37.57076,-17.77682 -51.3719,-4.42204 9.98343,-4.62971 2.67198,-27.84261 -5.16115,-34.29303 25.01963,18.64709 -1.10274,31.65213 57.27691,29.78083 l 0.74385,-17.8685 -16.36482,-20.10205 c 5.45762,5.217 14.49243,13.87218 16.36482,11.91232 l 2.23157,-40.94863 2.23158,32.01439 c 3.69841,-1.92273 10.10747,-11.98466 15.62097,-19.35754 -4.17949,8.43075 -2.46742,17.3201 -15.62097,27.54726 l 0.74385,16.37946 28.26653,-37.97056 c -3.41885,8.7836 -10.66734,12.67546 1.7065,23.95605 -11.98731,-13.99928 -18.26139,4.60517 -29.22917,23.69328 l 0.74385,18.61301 c 13.15814,-10.71524 26.30172,-16.50098 45.37522,-13.40138 6.568564,-12.09736 10.011544,-22.63055 12.645554,-32.7589 -0.20017,8.68834 -0.93328,18.04344 -8.92627,36.48151 l 5.95085,8.93425 -8.18242,-5.95617 c -21.484314,-7.43426 -32.167284,6.1059 -46.119074,15.63494 l 2.23156,39.45958 c 5.19221,-10.77392 6.96597,-15.93474 29.75424,-18.61301 15.032984,-10.00144 16.308174,-14.5927 39.424374,-20.10205 4.31645,-13.27197 14.88798,-19.45452 23.05957,-23.08014 -8.73882,6.7382 -16.63756,13.6446 -15.62101,22.33562 l 8.92626,7.44519 c -11.47298,-3.70186 -36.30514,-0.0793 -50.582194,15.63494 -29.54698,8.74907 -26.23929,3.16767 -34.21738,29.0363 l 1.48771,25.313706 c 21.18891,-15.003496 22.83826,-12.683546 33.47353,-17.123976 19.046504,5.97288 21.735954,-15.43856 36.449034,-23.82466 12.69517,2.23337 20.49128,8.13732 34.96115,1.48905 -4.59547,6.56821 -12.83435,9.48977 -31.24192,2.23356 -8.04759,3.80093 -15.23027,8.90037 -19.3403,18.61301 -6.57582,4.32128 4.00853,16.037248 1.42028,13.87975 -7.0422,-5.8703 -23.535014,-7.3514 -30.430664,-1.96742 -10.7404,-0.0722 -17.74908,5.842816 -24.54725,15.634933 l 1.48771,33.503421 c 8.52223,-15.089508 23.71665,-16.83021 37.93666,-18.613015 14.102294,-3.792393 18.688024,-7.732499 25.291104,-15.634926 l -7.43855,12.656847 c 18.44909,8.600238 35.59989,5.505 52.06997,-3.722609 -10.25961,8.022859 -17.17049,18.788008 -48.35065,9.678777 3.43056,12.380315 16.58161,11.788442 25.29108,17.123975 -8.62896,-0.463654 -17.52383,-1.548599 -31.98582,-15.634935 l -22.315694,2.978079 c -13.69549,4.175315 -23.99286,11.459883 -29.75424,21.591104 l 2.97542,56.583569 c 5.95497,13.38487 13.04088,7.35152 29.01039,19.35753 11.492014,2.31986 19.908494,2.30596 27.522674,0.74452 15.13026,9.93899 22.34003,-0.10871 31.98583,-2.97809 -5.26018,5.74478 -11.295,17.033 -35.70506,8.93426 -7.47041,0.74452 -14.054,1.48904 -25.291154,2.23356 L -127.19844,28.4694 c 14.60726,8.75772 9.86436,25.98868 52.813774,22.33563 -7.77278,1.98538 -12.25821,3.97077 -31.241954,5.95616 -0.27561,7.84375 7.182334,17.79855 -13.3894,20.10205 15.20168,-19.28232 2.36188,-30.76838 -17.85255,-40.20411 -0.67605,21.94462 26.67358,19.98422 -2.97542,61.05069 -0.53255,-21.82093 21.35308,-22.10205 -9.67013,-51.37192 l -2.97543,-11.91233 c 0.8846,8.31941 -7.80397,13.4449 3.71929,25.3137 0.7992,10.97503 -6.60933,13.735 -15.62098,14.89041 -11.6788,-0.23282 0.48238,14.44765 2.97543,23.08014 -3.96724,-6.20434 -28.84811,-16.17833 -2.97543,-32.01439 10.46452,-8.23963 1.8444,-11.65979 -2.97543,-14.8904 -7.38373,-1.09496 -0.0833,-10.58838 5.95086,-19.35754 l -29.75425,26.05822 c -8.69706,8.50229 -1.54475,15.02163 5.20699,21.5911 -9.36508,-8.14189 -21.02895,-2.7474 -9.67013,-23.82466 -11.30142,-3.60483 -20.95763,8.22388 -29.01038,-2.23356 l -10.41399,-8.18973 c 10.41399,3.34356 20.82797,5.08568 31.24196,0.74452 15.55792,3.10805 23.91472,-3.24246 26.03496,-8.93425 -16.11951,3.97867 -29.59552,0.0197 -43.88751,-1.48904 -6.58832,9.15442 -31.29877,3.35347 -30.34933,-5.80726 z"
     style="display:inline;fill:transparent;fill-opacity:1;fill-rule:evenodd;stroke:white;stroke-width:1.99999928;stroke-linecap:butt;stroke-linejoin:miter;stroke-miterlimit:4;stroke-dasharray:none;stroke-opacity:1" />
  <use
     height="100%"
     width="100%"
     transform="matrix(-0.49183518,0.87068834,-0.87068834,-0.49183518,-279.599,-168.00688)"
     id="use5871"
     xlink:href="#g5194"
     y="0"
     x="0" />
  <use
     x="0"
     y="0"
     xlink:href="#g5194"
     id="use5869"
     transform="matrix(-0.95312496,-0.30257701,0.30257701,-0.95312496,-260.23717,-331.54992)"
     width="100%"
     height="100%" />
  <use
     x="0"
     y="0"
     xlink:href="#g5194"
     id="use5873"
     transform="matrix(0.5150806,0.85714176,-0.85714176,0.5150806,-160.0504,-105.63657)"
     width="100%"
     height="100%" />
  <use
     x="0"
     y="0"
     xlink:href="#g5194"
     id="use5879"
     transform="matrix(-0.38035244,-0.92484164,0.92484164,-0.38035244,-197.15047,-362.32897)"
     width="100%"
     height="100%" />
  <use
     x="0"
     y="0"
     xlink:href="#g5194"
     id="use5883"
     transform="matrix(-0.63486255,0.77262512,-0.77262512,-0.63486255,-334.03819,-180.15392)"
     width="100%"
     height="100%" />
  <use
     height="100%"
     width="100%"
     transform="matrix(-0.92758773,0.37360547,-0.37360547,-0.92758773,-282.31065,-279.75594)"
     id="use5865"
     xlink:href="#g5194"
     y="0"
     x="0" />
  <use
     x="0"
     y="0"
     xlink:href="#g5194"
     id="use5859"
     transform="matrix(-0.99967522,-0.02548527,0.02548527,-0.99967522,-249.37738,-318.34914)"
     width="100%"
     height="100%" />
  <use
     x="0"
     y="0"
     xlink:href="#g5194"
     id="use5855"
     transform="matrix(-0.77544525,-0.63141484,0.63141484,-0.77544525,-172.63429,-369.31726)"
     width="100%"
     height="100%" />
  <use
     height="100%"
     width="100%"
     transform="matrix(0.63177969,-0.77514802,0.77514802,0.63177969,2.4218267,-278.49023)"
     id="use5837"
     xlink:href="#g5194"
     y="0"
     x="0" />
  <use
     x="0"
     y="0"
     xlink:href="#g5194"
     id="use5851"
     transform="matrix(0.92743764,-0.37397784,0.37397784,0.92743764,-2.3136576,-169.17112)"
     width="100%"
     height="100%" />
  <use
     x="0"
     y="0"
     xlink:href="#g5194"
     id="use5845"
     transform="matrix(0.81371616,-0.58126246,-0.58126246,-0.81371616,-32.210249,-341.88396)"
     width="100%"
     height="100%" />
  <use
     x="0"
     y="0"
     xlink:href="#g5194"
     id="use5841"
     transform="matrix(-0.99989541,-0.0144637,0.0144637,-0.99989541,-204.46729,-293.00758)"
     width="100%"
     height="100%" />
  <use
     height="100%"
     width="100%"
     transform="matrix(-0.64519687,-0.76401638,0.76401638,-0.64519687,-116.00237,-352.41)"
     id="use5843"
     xlink:href="#g5194"
     y="0"
     x="0" />
  <use
     height="100%"
     width="100%"
     transform="matrix(0.19342398,-0.98111528,0.98111528,0.19342398,-4.9471775,-319.65164)"
     id="use5829"
     xlink:href="#g5194"
     y="0"
     x="0" />
  <use
     height="100%"
     width="100%"
     transform="matrix(-0.98430268,-0.17648871,0.17648871,-0.98430268,-162.62687,-274.11975)"
     id="use5827"
     xlink:href="#g5194"
     y="0"
     x="0" />
  <use
     x="0"
     y="0"
     xlink:href="#g5194"
     id="use5817"
     transform="matrix(0.19342398,-0.98111528,0.98111528,0.19342398,27.175708,-296.30619)"
     width="100%"
     height="100%" />
  <use
     x="0"
     y="0"
     xlink:href="#g5194"
     id="use5833"
     transform="matrix(-0.53582011,-0.84433219,0.84433219,-0.53582011,-101.64777,-316.5995)"
     width="100%"
     height="100%" />
  <use
     height="100%"
     width="100%"
     transform="matrix(0.62579682,-0.77998612,0.77998612,0.62579682,29.662948,-236.92287)"
     id="use5823"
     xlink:href="#g5194"
     y="0"
     x="0" />
  <use
     height="100%"
     width="100%"
     transform="matrix(0.94417973,0.32943078,-0.32943078,0.94417973,-15.653564,-94.335976)"
     id="use5849"
     xlink:href="#g5194"
     y="0"
     x="0" />
  <use
     x="0"
     y="0"
     xlink:href="#g5194"
     id="use5891"
     transform="matrix(-0.58680052,0.80973154,-0.80973154,-0.58680052,-338.59364,-142.83969)"
     width="100%"
     height="100%" />
  <use
     height="100%"
     width="100%"
     transform="matrix(-0.09454681,0.99552043,-0.99552043,-0.09454681,-276.1822,-89.570553)"
     id="use5889"
     xlink:href="#g5194"
     y="0"
     x="0" />
  <use
     x="0"
     y="0"
     xlink:href="#g5194"
     id="use5893"
     transform="matrix(0.75243312,0.65866868,-0.65866868,0.75243312,-156.28098,-74.73257)"
     width="100%"
     height="100%" />
  <use
     x="0"
     y="0"
     xlink:href="#g5194"
     id="use5905"
     transform="matrix(-0.94483833,0.32753712,-0.32753712,-0.94483833,-325.66658,-187.42682)"
     width="100%"
     height="100%" />
  <use
     height="100%"
     width="100%"
     transform="matrix(-0.86033173,0.50973459,-0.50973459,-0.86033173,-305.96503,-160.72428)"
     id="use5903"
     xlink:href="#g5194"
     y="0"
     x="0" />
  <use
     x="0"
     y="0"
     xlink:href="#g5194"
     id="use5901"
     transform="matrix(-0.93897394,-0.34398835,0.34398835,-0.93897394,-261.19541,-265.15609)"
     width="100%"
     height="100%" />
  <use
     height="100%"
     width="100%"
     transform="matrix(0.85723394,0.51492715,-0.51492715,0.85723394,-106.0055,-45.936058)"
     id="use5917"
     xlink:href="#g5194"
     y="0"
     x="0" />
  <use
     x="0"
     y="0"
     xlink:href="#g5194"
     id="use5915"
     transform="matrix(0.95906445,0.28318788,-0.28318788,0.95906445,-100.62957,-64.623617)"
     width="100%"
     height="100%" />
  <use
     height="100%"
     width="100%"
     transform="matrix(-0.33227302,-0.94318325,0.94318325,-0.33227302,-173.90402,-262.45887)"
     id="use5921"
     xlink:href="#g5194"
     y="0"
     x="0" />
  <use
     height="100%"
     width="100%"
     transform="matrix(-0.83601686,0.54870377,-0.54870377,-0.83601686,-377.96061,-133.06698)"
     id="use5925"
     xlink:href="#g5194"
     y="0"
     x="0" />
  <use
     x="0"
     y="0"
     xlink:href="#g5194"
     id="use5899"
     transform="matrix(-0.83601686,0.54870377,-0.54870377,-0.83601686,-377.2168,-160.61408)"
     width="100%"
     height="100%" />
  <use
     height="100%"
     width="100%"
     transform="matrix(-0.93681886,0.34981486,-0.34981486,-0.93681886,-370.0539,-193.33144)"
     id="use5897"
     xlink:href="#g5194"
     y="0"
     x="0" />
  <use
     height="100%"
     width="100%"
     transform="matrix(0.46434749,0.8856531,-0.8856531,0.46434749,-232.56129,-41.044315)"
     id="use5909"
     xlink:href="#g5194"
     y="0"
     x="0" />
  <use
     x="0"
     y="0"
     xlink:href="#g5194"
     id="use5907"
     transform="matrix(-0.01349433,0.99990895,-0.99990895,-0.01349433,-317.8369,-54.270971)"
     width="100%"
     height="100%" />
  <use
     height="100%"
     width="100%"
     transform="matrix(-0.01349433,0.99990895,-0.99990895,-0.01349433,-313.00181,-28.957391)"
     id="use5923"
     xlink:href="#g5194"
     y="0"
     x="0" />
  <use
     x="0"
     y="0"
     xlink:href="#g5194"
     id="use5927"
     transform="matrix(-0.95210955,0.30575713,-0.30575713,-0.95210955,-381.3244,-145.40305)"
     width="100%"
     height="100%" />
  <use
     height="100%"
     width="100%"
     transform="matrix(-0.18443413,0.98284488,-0.98284488,-0.18443413,-268.99566,45.375417)"
     id="use5965"
     xlink:href="#g5194"
     y="0"
     x="0" />
  <use
     x="0"
     y="0"
     xlink:href="#g5194"
     id="use5967"
     transform="matrix(0.86912217,0.49459746,-0.49459746,0.86912217,-114.41542,53.897643)"
     width="100%"
     height="100%" />
  <use
     x="0"
     y="0"
     xlink:href="#g5194"
     id="use5963"
     transform="matrix(0.79435385,-0.60745532,0.60745532,0.79435385,-90.120329,-86.157923)"
     width="100%"
     height="100%" />
  <use
     height="100%"
     width="100%"
     transform="matrix(0.84253575,0.53864044,-0.53864044,0.84253575,-157.01455,51.807724)"
     id="use5961"
     xlink:href="#g5194"
     y="0"
     x="0" />
  <use
     x="0"
     y="0"
     xlink:href="#g5194"
     id="use5959"
     transform="matrix(0.94019824,0.34062778,-0.34062778,0.94019824,-151.75034,24.254814)"
     width="100%"
     height="100%" />
  <use
     height="100%"
     width="100%"
     transform="matrix(0.37881599,0.92547202,-0.92547202,0.37881599,-255.50429,58.32204)"
     id="use5957"
     xlink:href="#g5194"
     y="0"
     x="0" />
  <use
     height="100%"
     width="100%"
     transform="matrix(0.74146454,0.67099207,-0.67099207,0.74146454,-231.02877,40.735591)"
     id="use5953"
     xlink:href="#g5194"
     y="0"
     x="0" />
  <use
     x="0"
     y="0"
     xlink:href="#g5194"
     id="use5955"
     transform="matrix(0.94379818,-0.33052234,0.33052234,0.94379818,-144.97779,-62.637418)"
     width="100%"
     height="100%" />
  <use
     x="0"
     y="0"
     xlink:href="#g5194"
     id="use5951"
     transform="matrix(-0.51662606,0.85621115,-0.85621115,-0.51662606,-389.16438,-15.762409)"
     width="100%"
     height="100%" />
  <use
     x="0"
     y="0"
     xlink:href="#g5194"
     id="use5943"
     transform="matrix(-0.99134931,-0.13124994,0.13124994,-0.99134931,-283.72222,-141.75171)"
     width="100%"
     height="100%" />
  <use
     x="0"
     y="0"
     xlink:href="#g5194"
     id="use5939"
     transform="matrix(0.94903147,0.31518132,-0.31518132,0.94903147,-98.87545,-18.97301)"
     width="100%"
     height="100%" />
  <use
     height="100%"
     width="100%"
     transform="matrix(0.87594141,0.4824175,-0.4824175,0.87594141,-94.989123,-0.34644358)"
     id="use5941"
     xlink:href="#g5194"
     y="0"
     x="0" />
  <use
     height="100%"
     width="100%"
     transform="matrix(-0.93973873,0.34189343,-0.34189343,-0.93973873,-320.9142,-94.266823)"
     id="use5945"
     xlink:href="#g5194"
     y="0"
     x="0" />
  <use
     height="100%"
     width="100%"
     transform="matrix(0.92736269,0.37416365,-0.37416365,0.92736269,-123.60796,-14.97916)"
     id="use5937"
     xlink:href="#g5194"
     y="0"
     x="0" />
  <use
     height="100%"
     width="100%"
     transform="matrix(0.61771866,0.78639918,-0.78639918,0.61771866,-225.78673,27.974536)"
     id="use5947"
     xlink:href="#g5194"
     y="0"
     x="0" />
  <use
     x="0"
     y="0"
     xlink:href="#g5194"
     id="use5949"
     transform="matrix(-0.38335747,-0.92360005,0.92360005,-0.38335747,-236.6433,-234.24114)"
     width="100%"
     height="100%" />
  <use
     height="100%"
     width="100%"
     transform="matrix(0.63598597,0.77170063,-0.77170063,0.63598597,-215.88239,10.155404)"
     id="use5933"
     xlink:href="#g5194"
     y="0"
     x="0" />
  <use
     x="0"
     y="0"
     xlink:href="#g5194"
     id="use5935"
     transform="matrix(0.54607446,0.83773665,-0.83773665,0.54607446,-249.28625,15.498293)"
     width="100%"
     height="100%" />
  <use
     x="0"
     y="0"
     xlink:href="#g5194"
     id="use5929"
     transform="matrix(0.731319,0.68203558,-0.68203558,0.731319,-173.41037,-11.595443)"
     width="100%"
     height="100%" />
  <g
     transform="matrix(-0.48160285,-0.57447119,-0.57395845,0.48203309,566.37417,198.93434)"
     style="opacity:1;fill:none;fill-opacity:1"
     id="g5194">
    <path
       inkscape:connector-curvature="0"
       style="fill:transparent;fill-opacity:1;fill-rule:evenodd;stroke:white;stroke-width:1.00222921;stroke-linecap:butt;stroke-linejoin:round;stroke-miterlimit:4;stroke-dasharray:none;stroke-opacity:1"
       d="m 834.35241,499.70761 c 3.83672,6.07501 6.75816,4.29768 8.90277,-1.69899 3.9467,3.70534 11.21693,1.14964 6.02553,-7.57284 5.08803,3.22768 11.63274,-9.11915 -0.91257,-9.51652 l -0.77265,-0.56223 c -1.90746,-10.91748 -10.05089,-4.54541 -9.11958,-0.29932 -7.62785,-3.45035 -10.52604,3.4778 -4.53947,7.99464 -9.79912,-2.93699 -8.81088,7.68526 -3.53171,8.199 -8.45935,5.18532 0.43866,12.48759 3.94768,3.45626 z"
       id="path5196"
       sodipodi:nodetypes="ccccccccc" />
    <path
       inkscape:connector-curvature="0"
       style="fill:none;fill-opacity:1;fill-rule:evenodd;stroke:white;stroke-width:1.00222921;stroke-linecap:round;stroke-linejoin:round;stroke-miterlimit:4;stroke-dasharray:none;stroke-opacity:1"
       d="m 852.17591,475.64717 c -2.60266,3.55959 -13.8512,16.51189 -15.64457,17.50727"
       id="path5198"
       sodipodi:nodetypes="cc" />
  </g>
  <use
     height="100%"
     width="100%"
     transform="matrix(0.95076544,-0.30991141,0.30991141,0.95076544,52.965604,-37.658538)"
     id="use5773"
     xlink:href="#g5194"
     y="0"
     x="0" />
  <use
     x="0"
     y="0"
     xlink:href="#g5194"
     id="use5779"
     transform="matrix(-0.48511331,-0.8744513,0.8744513,-0.48511331,-56.846021,-186.25671)"
     width="100%"
     height="100%" />
  <use
     height="100%"
     width="100%"
     transform="matrix(0.33020151,-0.94391047,0.94391047,0.33020151,42.729804,-142.46026)"
     id="use5777"
     xlink:href="#g5194"
     y="0"
     x="0" />
  <use
     height="100%"
     width="100%"
     transform="matrix(-0.02122338,-0.99977477,0.99977477,-0.02122338,0.58146112,-285.03304)"
     id="use5815"
     xlink:href="#g5194"
     y="0"
     x="0" />
  <use
     height="100%"
     width="100%"
     transform="matrix(0.38595046,-0.92251951,0.92251951,0.38595046,10.100714,-246.87975)"
     id="use5825"
     xlink:href="#g5194"
     y="0"
     x="0" />
  <use
     x="0"
     y="0"
     xlink:href="#g5194"
     id="use5813"
     transform="matrix(-0.93351145,-0.35854762,0.35854762,-0.93351145,-157.18774,-237.25733)"
     width="100%"
     height="100%" />
  <use
     x="0"
     y="0"
     xlink:href="#g5194"
     id="use5821"
     transform="matrix(0.55794394,-0.82987864,0.82987864,0.55794394,10.432424,-214.26714)"
     width="100%"
     height="100%" />
  <use
     height="100%"
     width="100%"
     transform="matrix(0.68285326,-0.73055556,0.73055556,0.68285326,0.36102812,-189.29458)"
     id="use5819"
     xlink:href="#g5194"
     y="0"
     x="0" />
  <use
     x="0"
     y="0"
     xlink:href="#g5194"
     id="use5801"
     transform="matrix(-0.53462186,0.84509139,-0.84509139,-0.53462186,-223.74077,-47.176307)"
     width="100%"
     height="100%" />
  <use
     x="0"
     y="0"
     xlink:href="#g5194"
     id="use5799"
     transform="matrix(0.32879556,-0.94440111,0.94440111,0.32879556,-19.462609,-193.13317)"
     width="100%"
     height="100%" />
  <use
     height="100%"
     width="100%"
     transform="matrix(0.99939902,-0.03466408,0.03466408,0.99939902,46.128094,-73.105554)"
     id="use5811"
     xlink:href="#g5194"
     y="0"
     x="0" />
  <use
     x="0"
     y="0"
     xlink:href="#g5194"
     id="use5809"
     transform="matrix(0.61996578,-0.78462885,0.78462885,0.61996578,50.860654,-185.70167)"
     width="100%"
     height="100%" />
  <use
     height="100%"
     width="100%"
     transform="matrix(-0.77350011,-0.63379617,0.63379617,-0.77350011,-126.01514,-210.84448)"
     id="use5793"
     xlink:href="#g5194"
     y="0"
     x="0" />
  <use
     height="100%"
     width="100%"
     transform="matrix(-0.62018876,0.7844526,-0.7844526,-0.62018876,-221.87546,-21.478633)"
     id="use5797"
     xlink:href="#g5194"
     y="0"
     x="0" />
  <use
     x="0"
     y="0"
     xlink:href="#g5194"
     id="use5795"
     transform="matrix(-0.99915445,-0.04111407,0.04111407,-0.99915445,-244.44118,-132.82225)"
     width="100%"
     height="100%" />
  <use
     x="0"
     y="0"
     xlink:href="#g5194"
     id="use5791"
     transform="matrix(0.61723034,-0.7867825,0.7867825,0.61723034,33.614554,-156.21608)"
     width="100%"
     height="100%" />
  <use
     height="100%"
     width="100%"
     transform="matrix(-0.93351145,-0.35854762,0.35854762,-0.93351145,-124.00404,-235.91376)"
     id="use5807"
     xlink:href="#g5194"
     y="0"
     x="0" />
  <use
     x="0"
     y="0"
     xlink:href="#g5194"
     id="use5805"
     transform="matrix(0.20364974,-0.97904382,0.97904382,0.20364974,48.715014,-236.06012)"
     width="100%"
     height="100%" />
  <use
     height="100%"
     width="100%"
     transform="matrix(0.99999209,-0.00397798,0.00397798,0.99999209,79.772034,-71.847629)"
     id="use5803"
     xlink:href="#g5194"
     y="0"
     x="0" />
  <use
     x="0"
     y="0"
     xlink:href="#g5194"
     id="use5787"
     transform="matrix(-0.96614449,-0.25800157,0.25800157,-0.96614449,-145.59919,-162.26016)"
     width="100%"
     height="100%" />
  <use
     height="100%"
     width="100%"
     transform="matrix(-0.99418678,0.10766911,-0.10766911,-0.99418678,-155.91022,-130.02558)"
     id="use5785"
     xlink:href="#g5194"
     y="0"
     x="0" />
  <use
     x="0"
     y="0"
     xlink:href="#g5194"
     id="use5783"
     transform="matrix(-0.86513958,-0.50153116,0.50153116,-0.86513958,-101.78098,-191.26213)"
     width="100%"
     height="100%" />
  <use
     height="100%"
     width="100%"
     transform="matrix(0.65111972,-0.75897504,0.75897504,0.65111972,93.956504,-131.4239)"
     id="use5781"
     xlink:href="#g5194"
     y="0"
     x="0" />
</svg>
