<?xml version="1.0" encoding="UTF-8" standalone="no"?>
<svg
   xmlns:dc="http://purl.org/dc/elements/1.1/"
   xmlns:cc="http://creativecommons.org/ns#"
   xmlns:rdf="http://www.w3.org/1999/02/22-rdf-syntax-ns#"
   xmlns:svg="http://www.w3.org/2000/svg"
   xmlns="http://www.w3.org/2000/svg"
   xmlns:xlink="http://www.w3.org/1999/xlink"
   version="1.1"
   id="svg2"
   viewBox="-300 -295 292.3324 397.19885"
   height="397.19885"
   width="292.3324">
  <metadata
     id="metadata31">
    <rdf:RDF>
      <cc:Work
         rdf:about="">
        <dc:format>image/svg+xml</dc:format>
        <dc:type
           rdf:resource="http://purl.org/dc/dcmitype/StillImage" />
        <dc:title></dc:title>
      </cc:Work>
    </rdf:RDF>
  </metadata>
  <!-- pagecolor="transparent" -->
  <!-- bordercolor="#666666" -->
  <defs
     id="defs4" />
  <use
     x="0"
     y="0"
     xlink:href="#g5194"
     id="use5789"
     transform="matrix(-0.00386148,-0.99999254,0.99999254,-0.00386148,-15.769148,-200.27113)"
     width="100%"
     height="100%" />
  <use
     height="100%"
     width="100%"
     transform="matrix(0.99999209,-0.00397798,0.00397798,0.99999209,60.601633,8.3290378)"
     id="use5775"
     xlink:href="#g5194"
     y="0"
     x="0" />
  <use
     height="100%"
     width="100%"
     transform="matrix(-0.50568095,0.86272057,-0.86272057,-0.50568095,-371.76809,-48.331791)"
     id="use5931"
     xlink:href="#g5194"
     y="0"
     x="0" />
  <use
     height="100%"
     width="100%"
     transform="matrix(0.73534286,0.67769528,-0.67769528,0.73534286,-174.03252,-42.8948)"
     id="use5911"
     xlink:href="#g5194"
     y="0"
     x="0" />
  <use
     x="0"
     y="0"
     xlink:href="#g5194"
     id="use5913"
     transform="matrix(0.37284391,0.92789408,-0.92789408,0.37284391,-210.22344,-25.795501)"
     width="100%"
     height="100%" />
  <use
     height="100%"
     width="100%"
     transform="matrix(0.64919835,-0.76061916,0.76061916,0.64919835,-51.216824,-207.99965)"
     id="use5919"
     xlink:href="#g5194"
     y="0"
     x="0" />
  <use
     height="100%"
     width="100%"
     transform="matrix(-0.99709584,0.07615711,-0.07615711,-0.99709584,-351.42,-227.0842)"
     id="use5895"
     xlink:href="#g5194"
     y="0"
     x="0" />
  <use
     height="100%"
     width="100%"
     transform="matrix(0.91351403,0.40680726,-0.40680726,0.91351403,-125.42035,-121.5338)"
     id="use5887"
     xlink:href="#g5194"
     y="0"
     x="0" />
  <use
     height="100%"
     width="100%"
     transform="matrix(0.98112554,0.19337186,-0.19337186,0.98112554,10.086718,-100.65416)"
     id="use5847"
     xlink:href="#g5194"
     y="0"
     x="0" />
  <use
     x="0"
     y="0"
     xlink:href="#g5194"
     id="use5835"
     transform="matrix(0.93158394,-0.36352636,0.36352636,0.93158394,41.964634,-198.17973)"
     width="100%"
     height="100%" />
  <use
     x="0"
     y="0"
     xlink:href="#g5194"
     id="use5831"
     transform="matrix(-0.53462186,0.84509139,-0.84509139,-0.53462186,-224.96121,-132.24376)"
     width="100%"
     height="100%" />
  <use
     height="100%"
     width="100%"
     transform="matrix(0.90753601,0.41997432,-0.41997432,0.90753601,-38.535731,-120.06482)"
     id="use5839"
     xlink:href="#g5194"
     y="0"
     x="0" />
  <use
     x="0"
     y="0"
     xlink:href="#g5194"
     id="use5857"
     transform="matrix(-0.79914566,-0.60113746,0.60113746,-0.79914566,-188.2572,-374.1774)"
     width="100%"
     height="100%" />
  <use
     x="0"
     y="0"
     xlink:href="#g5194"
     id="use5861"
     transform="matrix(-0.91615549,-0.40082311,0.40082311,-0.91615549,-226.34321,-340.99436)"
     width="100%"
     height="100%" />
  <use
     x="0"
     y="0"
     xlink:href="#g5194"
     id="use5863"
     transform="matrix(-0.86652175,-0.49913935,0.49913935,-0.86652175,-220.84688,-379.33497)"
     width="100%"
     height="100%" />
  <use
     height="100%"
     width="100%"
     transform="matrix(-0.37860549,0.92555817,-0.92555817,-0.37860549,-255.75794,-178.45361)"
     id="use5867"
     xlink:href="#g5194"
     y="0"
     x="0" />
  <use
     x="0"
     y="0"
     xlink:href="#g5194"
     id="use5885"
     transform="matrix(0.01620221,0.99986875,-0.99986875,0.01620221,-271.78053,-112.43105)"
     width="100%"
     height="100%" />
  <use
     x="0"
     y="0"
     xlink:href="#g5194"
     id="use5877"
     transform="matrix(-0.99968796,-0.02498039,0.02498039,-0.99968796,-326.09014,-296.36026)"
     width="100%"
     height="100%" />
  <use
     x="0"
     y="0"
     xlink:href="#g5194"
     id="use5881"
     transform="matrix(0.40772123,-0.91310648,0.91310648,0.40772123,-96.784894,-306.21069)"
     width="100%"
     height="100%" />
  <use
     x="0"
     y="0"
     xlink:href="#g5194"
     id="use5875"
     transform="matrix(-0.76098053,0.64877475,-0.64877475,-0.76098053,-290.43005,-172.59307)"
     width="100%"
     height="100%" />
  <use
     x="0"
     y="0"
     xlink:href="#g5194"
     id="use5853"
     transform="matrix(-0.80562608,-0.59242435,0.59242435,-0.80562608,-184.44865,-270.3257)"
     width="100%"
     height="100%" />
  <use
     height="100%"
     width="100%"
     transform="matrix(0.68792606,-0.72578078,0.72578078,0.68792606,18.650293,-107.2166)"
     id="use4971"
     xlink:href="#g5194"
     y="0"
     x="0" />
  <path
     id="path4626"
     class="main-trunk-path"
     d="m -150.00391,-267.91992 c -4.69945,1.24961 -1.29083,10.99456 -2.84246,15.54234 -1.22622,7.98016 0.84887,16.84744 -2.59499,24.15103 -3.99594,-1.69372 -19.66723,-17.7862 -10.39121,-4.3329 8.64877,5.90051 19.99277,29.75541 4.26812,30.8582 -17.03141,3.64834 -37.57154,-4.7588 -41.72656,-22.91411 -15.83704,-14.83214 3.45167,9.36116 1.00441,16.31165 -2.26173,7.46673 -5.14268,15.14709 4.95071,9.47457 13.10361,2.39047 33.04588,7.5209 41.41688,10.95797 -0.52106,7.38378 -0.58444,14.82141 -0.75258,22.13474 -14.9982,-1.09807 -33.55273,-1.89628 -50.14367,-3.41819 -8.64698,0.29498 -19.88336,-6.97223 -26.69031,-4.15217 10.54625,9.368 32.811,3.51221 38.28305,16.3366 11.7772,-3.69656 30.30002,-6.32225 37.82429,5.96218 -2.68158,11.37631 6.52393,39.75479 -14.79257,30.04141 -18.13315,-7.42196 -35.98395,-15.59338 -48.09439,-31.54126 -6.06483,-5.53512 -21.85176,-17.41371 -27.74002,-12.02751 6.92974,6.85165 28.85979,13.5524 24.66799,22.28323 -5.93668,2.8948 -34.09552,-9.46388 -19.19879,2.25457 16.34855,4.04918 34.26006,5.28676 48.31995,15.84114 -18.69872,2.09022 -38.03665,-0.17278 -56.4687,2.40824 8.72392,4.79981 23.48248,2.27698 34.35607,4.72681 19.11635,1.68036 38.67337,2.54503 56.87265,9.2127 -0.81427,14.15301 -1.20928,28.768648 -2.18872,42.607218 -13.18985,4.338562 -22.67941,-7.571687 -31.77857,-15.053149 -14.36359,-12.980803 -39.61441,0.996839 -49.72806,-17.360759 -11.32675,-13.43288 -3.32071,2.551807 -4.07358,9.220432 -7.68544,3.652113 -25.90732,-3.141156 -28.19198,4.824402 8.8789,6.875513 37.29456,-6.743867 33.59199,8.37114 -13.20971,10.100538 3.75211,2.940351 8.53115,-1.376957 14.31669,-11.483021 13.36929,10.265057 11.2229,15.714757 3.71477,-16.764867 30.91256,-18.98232 35.09673,-1.298519 10.41662,8.466192 32.41598,6.8997 23.39424,26.761641 -0.35565,20.181124 3.26635,44.1822201 -13.51485,59.138248 -15.13441,14.684983 -36.24698,-4.597816 -51.45735,6.285585 -6.49925,9.295622 -30.83731,-10.16003 -22.14222,4.855029 14.27875,12.882786 32.07119,-2.445441 48.55699,3.660314 7.62797,2.590276 32.98145,-4.120133 13.64175,5.967119 -13.57351,1.266076 -27.90744,3.163054 -41.62939,1.197928 -12.40154,-3.08122 10.41264,14.861199 16.54859,12.821529 9.62136,-4.539921 19.02528,-5.18825 13.11688,8.684579 -1.3519,10.198119 24.21311,16.523486 8.44433,3.610532 -7.61426,-11.871935 10.82977,-18.38436 17.03081,-26.068828 6.22602,-5.530385 10.65555,-10.400563 4.49407,0.517991 -2.32582,6.981906 18.29812,13.078507 3.79175,21.782317 -18.7741,2.250941 -6.75693,31.249767 4.95069,27.371974 -6.17236,-8.496536 -9.87552,-19.41113 5.05396,-21.2105 20.2364,-5.361588 -3.48342,-26.997107 4.78184,-31.726698 4.03248,12.827212 23.48278,20.928432 16.44909,36.539818 -4.81836,7.599024 -7.60065,25.697017 2.84603,11.792663 13.93616,-14.48224 1.95567,-37.076694 -1.1816,-49.780143 16.46678,2.658558 27.13965,23.5537 14.81832,35.628902 9.81591,6.384638 17.95795,-7.408482 14.92774,-16.003953 4.826987,-6.754281 29.617524,-2.035564 25.843754,-9.312496 -14.263957,0.5599 -30.303324,-0.586987 -39.000774,-13.661142 1.71194,2.92999 20.329898,7.953572 29.581082,3.91091 12.758419,1.754007 39.307421,4.79917 40.120774,-11.390442 -13.239389,12.025459 -31.265613,2.319316 -46.822716,3.503403 -14.75085,-2.561194 -37.13702,-8.715352 -40.307,-25.1508065 -0.89415,-17.0120205 -1.7883,-34.0240415 -2.68245,-51.0360615 10.1103,-17.074756 32.00271,-24.373569 50.902719,-22.572399 8.347119,2.982302 23.381371,21.170334 29.782824,11.427829 -7.695287,-1.276821 -32.715319,-16.770727 -12.687227,-11.579888 12.004019,2.48102 32.842815,-0.955494 35.775118,-12.660347 -14.715549,7.311814 -31.542758,8.706969 -46.976563,4.781251 -1.019605,-4.880894 9.33769,-20.127584 -1.137082,-9.165668 -14.524207,13.925294 -38.757159,6.694378 -52.857049,21.431293 -7.42269,13.369829 -2.76273,-17.196206 -4.87255,-22.497557 5.63132,-18.479591 32.5202,-25.481921 49.01853,-18.069171 10.671324,4.342425 -2.096984,-14.70731 7.576337,-19.24765 9.128558,-17.88599 31.175667,-1.4399 44.078416,-10.76376 4.966492,-8.35424 -18.075092,3.45674 -22.14312,-4.89263 -21.886606,-4.66749 -26.922184,27.25903 -48.657723,23.99481 -10.62229,-0.59478 -26.70021,15.078795 -31.07894,11.80951 -0.54813,-13.67644 -4.53015,-30.29847 8.4208,-39.90974 17.24225,-6.47528 32.472764,-15.55819 49.394247,-23.461 6.140529,-5.89425 35.80167,4.22728 19.252344,-7.38039 -12.691478,-9.31317 23.252564,-27.4661 5.148396,-21.67156 -12.221349,11.1212 -21.876209,24.5987 -39.683019,28.53871 -11.848918,13.00427 -32.691338,10.20056 -43.636148,23.73789 -2.49568,2.83 -1.21621,-11.12248 -2.11243,-15.40291 -1.469,-9.4493 -0.67549,-20.403 9.2208,-25.22052 13.0614,-8.69818 30.12175,-12.64822 42.499773,-2.08347 -7.019684,-11.63734 2.500963,-24.17069 4.801178,-36.31548 -1.106553,-17.35836 -8.248824,11.89054 -10.62669,16.08996 -10.498081,11.15967 -37.514381,6.30806 -47.725121,18.44769 -0.62168,-8.58611 -1.44531,-17.15344 4.28753,-24.44081 2.82746,-12.92013 14.89184,-20.25967 24.03067,-15.43968 -13.35422,-3.17725 0.86648,-22.63504 -3.79929,-23.06838 -8.80394,11.76213 -17.71528,23.9343 -26.2772,35.17163 -3.86148,-14.70303 12.55824,-23.38643 13.85147,-36.88281 -1.26851,-11.69985 -16.25324,25.21641 -14.81465,6.1099 -0.53997,-7.75433 -1.08132,-15.51105 -1.62042,-23.26387 z m -0.875,16.20508 c 0.4082,5.85677 0.81641,11.71354 1.22461,17.57031 7.76874,-4.23702 17.43206,-23.57436 10.17184,-5.94417 -7.12632,4.81184 -16.85998,28.30739 -5.7363,26.89335 6.59656,-9.21962 13.50368,-18.22247 20.23631,-27.34964 0.43709,9.42908 1.30049,10.25144 -7.95987,13.17168 -7.14541,9.80091 -16.64129,21.42427 -15.00147,34.29043 0.44811,7.1683 -1.27325,18.01069 6.88914,6.5332 11.69407,-13.29011 36.60789,-2.52013 44.884251,-16.90915 3.050739,-8.3472 9.763304,-27.17226 4.512718,-8.67029 -5.858525,5.92986 -4.014965,24.15475 -6.11188,22.8596 -14.697299,-9.43332 -35.912469,1.25518 -46.196589,13.40953 -4.90115,9.90502 -0.72469,21.32615 -1.12731,31.94784 -0.69911,6.15759 2.01699,15.55345 5.02802,3.27965 14.66775,-12.25821 35.55169,-14.31521 50.852325,-26.65041 10.10952,-0.94774 25.475767,-16.78418 24.824108,-18.87488 -9.109766,8.94869 9.41219,21.92991 -8.41024,17.43414 -21.210587,1.50312 -35.788743,18.70207 -55.961763,22.62305 -13.53847,6.48709 -16.54859,22.35114 -14.37547,35.81901 1.22265,3.82579 -1.08532,15.99704 2.3973,14.480892 13.07029,-11.606922 30.68276,-16.291622 47.514391,-18.414212 9.975975,-13.10712 24.608133,-28.48317 41.795121,-17.7277 8.832765,-1.66754 13.401997,-0.0457 1.866982,0.52174 -17.693268,-6.35139 -44.957877,4.55283 -38.644518,26.01458 -3.328554,0.90243 -26.987686,-5.76996 -36.602386,2.7543 -17.54699,5.195113 -18.38491,22.609268 -15.74755,37.467838 -2.41389,13.516657 5.7291,11.255232 10.57027,2.01707 12.47369,-7.200285 41.964667,-12.069948 46.716301,-14.309206 4.488113,15.625705 40.420576,3.581016 43.401133,4.039625 -11.283419,9.937388 -30.88484,4.01429 -40.722422,3.641724 9.255742,15.345961 -7.108367,-4.204982 -15.886494,1.636862 -16.457968,1.704076 -38.806118,9.359251 -42.739698,27.083291 1.08413,18.155999 1.66115,36.5076901 3.06174,54.541563 13.44986,16.592138 35.47412,22.296968 55.990693,22.080143 7.142276,4.314296 29.585441,-1.089289 26.344924,1.023366 -16.622077,7.128461 -35.969949,0.32936 -53.401297,2.850663 -4.75266,-1.362735 -27.59903,-18.772482 -14.02605,-3.799568 9.091,12.698824 23.782732,18.277942 39.134668,16.657888 -12.036618,0.657038 -29.611998,2.652126 -24.826578,18.794017 -8.05633,7.735309 -12.5841,3.579297 -5.04195,-3.396102 5.73371,-13.042717 -14.87859,-35.634033 -25.57683,-26.675262 11.33503,13.867036 13.27902,43.858533 -0.55469,50.476563 7.45817,-13.783725 8.86245,-29.936651 -5.0489,-39.917969 -6.78574,-3.77214 -8.61317,-26.721539 -12.06416,-7.711408 -0.3512,12.437324 12.79679,25.969986 -7.36771,29.69383 -18.60864,0.876564 6.48907,29.275982 -7.59375,14.855469 -19.60822,-16.363624 25.40687,-22.425557 4.98821,-38.358117 -11.52415,-0.548102 12.12922,-25.35667 -2.7558,-14.281132 -9.10369,9.629863 -22.29126,16.230536 -28.44665,28.130255 -0.10042,6.363586 8.86897,14.941995 -1.46237,6.823458 3.6571,-12.384057 -1.06267,-22.787041 -14.10006,-14.36274 -9.72275,1.163854 -25.48941,-12.362672 -7.30162,-7.602081 12.91005,-2.371865 26.11836,1.936117 37.20215,-5.587364 10.78571,-13.778559 -23.73286,-2.280856 -31.91332,-7.631821 -10.65317,0.505509 -34.25674,6.040427 -34.63072,-3.326832 15.73125,7.192102 29.28163,-9.6611 44.77532,-1.412336 17.20781,4.554441 34.60802,-6.31477 39.41657,-23.0136727 5.81325,-18.0732503 0.27092,-37.4360393 4.49731,-55.6924453 -4.5966,-13.830085 -26.64004,-6.626094 -29.88348,-23.015106 -7.05313,-12.938376 -27.37775,1.250958 -28.62721,-3.381124 -2.99111,-19.491122 -23.63042,7.92941 -21.19401,-8.286948 -10.40641,-4.66068 -22.35004,1.370913 -33.05072,-2.173824 13.74587,2.280218 32.84132,-3.015114 27.80081,-11.804675 8.85912,18.468903 32.31386,6.198137 46.42129,16.083759 11.86664,5.891224 19.76719,20.648393 34.49742,18.23503 8.7942,-2.850773 3.19581,-14.996059 5.33693,-22.293221 0.40372,-8.216204 0.80744,-16.43241 1.21116,-24.64861 -24.87103,-9.29903 -51.84238,-8.49802 -77.85738,-11.63096 15.49488,-0.56829 31.1157,0.57648 46.49023,-1.9375 -14.902,-12.59086 -34.68839,-15.29869 -52.99336,-19.07008 -9.63227,-3.43321 34.57225,9.61766 19.44029,-7.66175 -4.68528,-4.83633 -30.29691,-18.69358 -12.10925,-10.65263 16.06698,6.99134 22.73846,26.31395 40.0399,30.79091 9.93006,5.24713 39.30686,23.82227 38.17948,1.14908 0.54452,-13.46314 4.76772,-32.72282 -14.66818,-33.2295 -13.43888,-1.19407 -23.71617,4.45041 -33.61154,-5.39653 12.88948,3.13976 26.61199,-1.09564 38.9911,3.53604 15.15218,6.01245 9.98967,-12.72379 11.43643,-21.46969 5.06859,-15.95861 -17.6192,-2.9201 -25.45878,-12.07612 -9.02081,-7.13735 -27.7861,2.55715 -20.62691,-13.279 -0.98407,-7.64665 12.4713,13.23834 21.2038,10.18721 13.67707,3.03979 31.97886,2.32459 26.6221,-16.62891 -1.57771,-9.46808 -10.97743,-9.28459 -0.50586,-11.71094 2.40471,-7.49128 0.97781,-15.65528 1.95575,-23.43333 z m -54.23242,28.10937 c 0.93316,0.65444 1.20054,3.67945 0,0 z m -18.23437,53.04102 1.03906,0.26757 -1.03906,-0.26757 z m 148.359372,109.539059 c 5.567281,3.771179 23.614795,10.067137 7.329213,5.027623 -2.640038,-1.368065 -5.009231,-3.185084 -7.329213,-5.027623 z"
     style="fill:transparent;fill-opacity:1;fill-rule:evenodd;stroke:#ffffff;stroke-width:1.00222921;stroke-linecap:butt;stroke-linejoin:round;stroke-miterlimit:4;stroke-dasharray:none;stroke-opacity:1"
     />
     <!-- style="color:#000000;font-style:normal;font-variant:normal;font-weight:normal;font-stretch:normal;font-size:medium;line-height:normal;font-family:sans-serif;text-indent:0;text-align:start;text-decoration:none;text-decoration-line:none;text-decoration-style:solid;text-decoration-color:#000000;letter-spacing:normal;word-spacing:normal;text-transform:none;direction:ltr;block-progression:tb;writing-mode:lr-tb;baseline-shift:baseline;text-anchor:start;white-space:normal;clip-rule:nonzero;display:inline;overflow:visible;visibility:visible;opacity:1;isolation:auto;mix-blend-mode:normal;color-interpolation:sRGB;color-interpolation-filters:linearRGB;solid-color:#000000;solid-opacity:1;fill:none;stroke:#ffffff;stroke-width:1.00222921;fill-opacity:1;fill-rule:evenodd;stroke-width:1.99999928;stroke-linecap:butt;stroke-linejoin:miter;stroke-miterlimit:4;stroke-opacity:1;color-rendering:auto;image-rendering:auto;shape-rendering:auto;text-rendering:auto;enable-background:accumulate"  -->
  <use
     x="0"
     y="0"
     xlink:href="#g5194"
     id="use5871"
     transform="matrix(-0.49183518,0.87068834,-0.87068834,-0.49183518,-279.599,-168.00688)"
     width="100%"
     height="100%" />
  <use
     height="100%"
     width="100%"
     transform="matrix(-0.95312496,-0.30257701,0.30257701,-0.95312496,-260.23717,-331.54992)"
     id="use5869"
     xlink:href="#g5194"
     y="0"
     x="0" />
  <use
     height="100%"
     width="100%"
     transform="matrix(0.5150806,0.85714176,-0.85714176,0.5150806,-160.0504,-105.63657)"
     id="use5873"
     xlink:href="#g5194"
     y="0"
     x="0" />
  <use
     height="100%"
     width="100%"
     transform="matrix(-0.38035244,-0.92484164,0.92484164,-0.38035244,-197.15047,-362.32897)"
     id="use5879"
     xlink:href="#g5194"
     y="0"
     x="0" />
  <use
     height="100%"
     width="100%"
     transform="matrix(-0.63486255,0.77262512,-0.77262512,-0.63486255,-334.03819,-180.15392)"
     id="use5883"
     xlink:href="#g5194"
     y="0"
     x="0" />
  <use
     x="0"
     y="0"
     xlink:href="#g5194"
     id="use5865"
     transform="matrix(-0.92758773,0.37360547,-0.37360547,-0.92758773,-282.31065,-279.75594)"
     width="100%"
     height="100%" />
  <use
     height="100%"
     width="100%"
     transform="matrix(-0.99967522,-0.02548527,0.02548527,-0.99967522,-249.37738,-318.34914)"
     id="use5859"
     xlink:href="#g5194"
     y="0"
     x="0" />
  <use
     height="100%"
     width="100%"
     transform="matrix(-0.77544525,-0.63141484,0.63141484,-0.77544525,-172.63429,-369.31726)"
     id="use5855"
     xlink:href="#g5194"
     y="0"
     x="0" />
  <use
     x="0"
     y="0"
     xlink:href="#g5194"
     id="use5837"
     transform="matrix(0.63177969,-0.77514802,0.77514802,0.63177969,2.4218267,-278.49023)"
     width="100%"
     height="100%" />
  <use
     height="100%"
     width="100%"
     transform="matrix(0.92743764,-0.37397784,0.37397784,0.92743764,-2.3136576,-169.17112)"
     id="use5851"
     xlink:href="#g5194"
     y="0"
     x="0" />
  <use
     height="100%"
     width="100%"
     transform="matrix(0.81371616,-0.58126246,-0.58126246,-0.81371616,-32.210249,-341.88396)"
     id="use5845"
     xlink:href="#g5194"
     y="0"
     x="0" />
  <use
     height="100%"
     width="100%"
     transform="matrix(-0.99989541,-0.0144637,0.0144637,-0.99989541,-204.46729,-293.00758)"
     id="use5841"
     xlink:href="#g5194"
     y="0"
     x="0" />
  <use
     x="0"
     y="0"
     xlink:href="#g5194"
     id="use5843"
     transform="matrix(-0.64519687,-0.76401638,0.76401638,-0.64519687,-116.00237,-352.41)"
     width="100%"
     height="100%" />
  <use
     x="0"
     y="0"
     xlink:href="#g5194"
     id="use5829"
     transform="matrix(0.19342398,-0.98111528,0.98111528,0.19342398,-4.9471775,-319.65164)"
     width="100%"
     height="100%" />
  <use
     x="0"
     y="0"
     xlink:href="#g5194"
     id="use5827"
     transform="matrix(-0.98430268,-0.17648871,0.17648871,-0.98430268,-162.62687,-274.11975)"
     width="100%"
     height="100%" />
  <use
     height="100%"
     width="100%"
     transform="matrix(0.19342398,-0.98111528,0.98111528,0.19342398,27.175708,-296.30619)"
     id="use5817"
     xlink:href="#g5194"
     y="0"
     x="0" />
  <use
     height="100%"
     width="100%"
     transform="matrix(-0.53582011,-0.84433219,0.84433219,-0.53582011,-101.64777,-316.5995)"
     id="use5833"
     xlink:href="#g5194"
     y="0"
     x="0" />
  <use
     x="0"
     y="0"
     xlink:href="#g5194"
     id="use5823"
     transform="matrix(0.62579682,-0.77998612,0.77998612,0.62579682,29.662948,-236.92287)"
     width="100%"
     height="100%" />
  <use
     x="0"
     y="0"
     xlink:href="#g5194"
     id="use5849"
     transform="matrix(0.94417973,0.32943078,-0.32943078,0.94417973,-15.653564,-94.335976)"
     width="100%"
     height="100%" />
  <use
     height="100%"
     width="100%"
     transform="matrix(-0.58680052,0.80973154,-0.80973154,-0.58680052,-338.59364,-142.83969)"
     id="use5891"
     xlink:href="#g5194"
     y="0"
     x="0" />
  <use
     x="0"
     y="0"
     xlink:href="#g5194"
     id="use5889"
     transform="matrix(-0.09454681,0.99552043,-0.99552043,-0.09454681,-276.1822,-89.570553)"
     width="100%"
     height="100%" />
  <use
     height="100%"
     width="100%"
     transform="matrix(0.75243312,0.65866868,-0.65866868,0.75243312,-156.28098,-74.73257)"
     id="use5893"
     xlink:href="#g5194"
     y="0"
     x="0" />
  <use
     height="100%"
     width="100%"
     transform="matrix(-0.94483833,0.32753712,-0.32753712,-0.94483833,-325.66658,-187.42682)"
     id="use5905"
     xlink:href="#g5194"
     y="0"
     x="0" />
  <use
     x="0"
     y="0"
     xlink:href="#g5194"
     id="use5903"
     transform="matrix(-0.86033173,0.50973459,-0.50973459,-0.86033173,-305.96503,-160.72428)"
     width="100%"
     height="100%" />
  <use
     height="100%"
     width="100%"
     transform="matrix(-0.93897394,-0.34398835,0.34398835,-0.93897394,-261.19541,-265.15609)"
     id="use5901"
     xlink:href="#g5194"
     y="0"
     x="0" />
  <use
     x="0"
     y="0"
     xlink:href="#g5194"
     id="use5917"
     transform="matrix(0.85723394,0.51492715,-0.51492715,0.85723394,-106.0055,-45.936058)"
     width="100%"
     height="100%" />
  <use
     height="100%"
     width="100%"
     transform="matrix(0.95906445,0.28318788,-0.28318788,0.95906445,-100.62957,-64.623617)"
     id="use5915"
     xlink:href="#g5194"
     y="0"
     x="0" />
  <use
     x="0"
     y="0"
     xlink:href="#g5194"
     id="use5921"
     transform="matrix(-0.33227302,-0.94318325,0.94318325,-0.33227302,-173.90402,-262.45887)"
     width="100%"
     height="100%" />
  <use
     x="0"
     y="0"
     xlink:href="#g5194"
     id="use5925"
     transform="matrix(-0.83601686,0.54870377,-0.54870377,-0.83601686,-377.96061,-133.06698)"
     width="100%"
     height="100%" />
  <use
     height="100%"
     width="100%"
     transform="matrix(-0.83601686,0.54870377,-0.54870377,-0.83601686,-377.2168,-160.61408)"
     id="use5899"
     xlink:href="#g5194"
     y="0"
     x="0" />
  <use
     x="0"
     y="0"
     xlink:href="#g5194"
     id="use5897"
     transform="matrix(-0.93681886,0.34981486,-0.34981486,-0.93681886,-370.0539,-193.33144)"
     width="100%"
     height="100%" />
  <use
     x="0"
     y="0"
     xlink:href="#g5194"
     id="use5909"
     transform="matrix(0.46434749,0.8856531,-0.8856531,0.46434749,-232.56129,-41.044315)"
     width="100%"
     height="100%" />
  <use
     height="100%"
     width="100%"
     transform="matrix(-0.01349433,0.99990895,-0.99990895,-0.01349433,-317.8369,-54.270971)"
     id="use5907"
     xlink:href="#g5194"
     y="0"
     x="0" />
  <use
     x="0"
     y="0"
     xlink:href="#g5194"
     id="use5923"
     transform="matrix(-0.01349433,0.99990895,-0.99990895,-0.01349433,-313.00181,-28.957391)"
     width="100%"
     height="100%" />
  <use
     height="100%"
     width="100%"
     transform="matrix(-0.95210955,0.30575713,-0.30575713,-0.95210955,-381.3244,-145.40305)"
     id="use5927"
     xlink:href="#g5194"
     y="0"
     x="0" />
  <use
     x="0"
     y="0"
     xlink:href="#g5194"
     id="use5965"
     transform="matrix(-0.18443413,0.98284488,-0.98284488,-0.18443413,-268.99566,45.375417)"
     width="100%"
     height="100%" />
  <use
     height="100%"
     width="100%"
     transform="matrix(0.86912217,0.49459746,-0.49459746,0.86912217,-114.41542,53.897643)"
     id="use5967"
     xlink:href="#g5194"
     y="0"
     x="0" />
  <use
     height="100%"
     width="100%"
     transform="matrix(0.79435385,-0.60745532,0.60745532,0.79435385,-90.120329,-86.157923)"
     id="use5963"
     xlink:href="#g5194"
     y="0"
     x="0" />
  <use
     x="0"
     y="0"
     xlink:href="#g5194"
     id="use5961"
     transform="matrix(0.84253575,0.53864044,-0.53864044,0.84253575,-157.01455,51.807724)"
     width="100%"
     height="100%" />
  <use
     height="100%"
     width="100%"
     transform="matrix(0.94019824,0.34062778,-0.34062778,0.94019824,-151.75034,24.254814)"
     id="use5959"
     xlink:href="#g5194"
     y="0"
     x="0" />
  <use
     x="0"
     y="0"
     xlink:href="#g5194"
     id="use5957"
     transform="matrix(0.37881599,0.92547202,-0.92547202,0.37881599,-255.50429,58.32204)"
     width="100%"
     height="100%" />
  <use
     x="0"
     y="0"
     xlink:href="#g5194"
     id="use5953"
     transform="matrix(0.74146454,0.67099207,-0.67099207,0.74146454,-231.02877,40.735591)"
     width="100%"
     height="100%" />
  <use
     height="100%"
     width="100%"
     transform="matrix(0.94379818,-0.33052234,0.33052234,0.94379818,-144.97779,-62.637418)"
     id="use5955"
     xlink:href="#g5194"
     y="0"
     x="0" />
  <use
     height="100%"
     width="100%"
     transform="matrix(-0.51662606,0.85621115,-0.85621115,-0.51662606,-389.16438,-15.762409)"
     id="use5951"
     xlink:href="#g5194"
     y="0"
     x="0" />
  <use
     height="100%"
     width="100%"
     transform="matrix(-0.99134931,-0.13124994,0.13124994,-0.99134931,-283.72222,-141.75171)"
     id="use5943"
     xlink:href="#g5194"
     y="0"
     x="0" />
  <use
     height="100%"
     width="100%"
     transform="matrix(0.94903147,0.31518132,-0.31518132,0.94903147,-98.87545,-18.97301)"
     id="use5939"
     xlink:href="#g5194"
     y="0"
     x="0" />
  <use
     x="0"
     y="0"
     xlink:href="#g5194"
     id="use5941"
     transform="matrix(0.87594141,0.4824175,-0.4824175,0.87594141,-94.989123,-0.34644358)"
     width="100%"
     height="100%" />
  <use
     x="0"
     y="0"
     xlink:href="#g5194"
     id="use5945"
     transform="matrix(-0.93973873,0.34189343,-0.34189343,-0.93973873,-320.9142,-94.266823)"
     width="100%"
     height="100%" />
  <use
     x="0"
     y="0"
     xlink:href="#g5194"
     id="use5937"
     transform="matrix(0.92736269,0.37416365,-0.37416365,0.92736269,-123.60796,-14.97916)"
     width="100%"
     height="100%" />
  <use
     x="0"
     y="0"
     xlink:href="#g5194"
     id="use5947"
     transform="matrix(0.61771866,0.78639918,-0.78639918,0.61771866,-225.78673,27.974536)"
     width="100%"
     height="100%" />
  <use
     height="100%"
     width="100%"
     transform="matrix(-0.38335747,-0.92360005,0.92360005,-0.38335747,-236.6433,-234.24114)"
     id="use5949"
     xlink:href="#g5194"
     y="0"
     x="0" />
  <use
     x="0"
     y="0"
     xlink:href="#g5194"
     id="use5933"
     transform="matrix(0.63598597,0.77170063,-0.77170063,0.63598597,-215.88239,10.155404)"
     width="100%"
     height="100%" />
  <use
     height="100%"
     width="100%"
     transform="matrix(0.54607446,0.83773665,-0.83773665,0.54607446,-249.28625,15.498293)"
     id="use5935"
     xlink:href="#g5194"
     y="0"
     x="0" />
  <use
     height="100%"
     width="100%"
     transform="matrix(0.731319,0.68203558,-0.68203558,0.731319,-173.41037,-11.595443)"
     id="use5929"
     xlink:href="#g5194"
     y="0"
     x="0" />
   <!-- LEAF PATH GROUP ROOT -->
  <g
   class="leaf-path-group"
     id="g5194"
     style="opacity:1;fill:none;fill-opacity:1"
     transform="matrix(-0.48160285,-0.57447119,-0.57395845,0.48203309,566.37417,198.93434)">
    <path
       id="path5196"
       d="m 834.35241,499.70761 c 17.86376,10.73603 28.75604,-27.63143 4.63253,-23.24768 -9.13805,8.68717 -15.00044,17.75142 -9.52438,27.41161 2.49454,0.52902 4.34728,-2.13001 4.89185,-4.16393 z"
       style="fill-opacity:1;fill-rule:evenodd;stroke:#ffffff;stroke-width:1.00222921;stroke-linecap:butt;stroke-linejoin:round;stroke-miterlimit:4;stroke-dasharray:none;stroke-opacity:1" />
    <path
       id="path5198"
       d="m 852.17591,475.64717 c -4.89984,6.10334 -9.87276,12.19506 -15.64457,17.50727"
       style="fill:none;fill-opacity:1;fill-rule:evenodd;stroke:#ffffff;stroke-width:1.00222921;stroke-linecap:round;stroke-linejoin:round;stroke-miterlimit:4;stroke-dasharray:none;stroke-opacity:1" />
  </g>
  <use
     x="0"
     y="0"
     xlink:href="#g5194"
     id="use5773"
     transform="matrix(0.95076544,-0.30991141,0.30991141,0.95076544,52.965604,-37.658538)"
     width="100%"
     height="100%" />
  <use
     height="100%"
     width="100%"
     transform="matrix(-0.48511331,-0.8744513,0.8744513,-0.48511331,-56.846021,-186.25671)"
     id="use5779"
     xlink:href="#g5194"
     y="0"
     x="0" />
  <use
     x="0"
     y="0"
     xlink:href="#g5194"
     id="use5777"
     transform="matrix(0.33020151,-0.94391047,0.94391047,0.33020151,42.729804,-142.46026)"
     width="100%"
     height="100%" />
  <use
     x="0"
     y="0"
     xlink:href="#g5194"
     id="use5815"
     transform="matrix(-0.02122338,-0.99977477,0.99977477,-0.02122338,0.58146112,-285.03304)"
     width="100%"
     height="100%" />
  <use
     x="0"
     y="0"
     xlink:href="#g5194"
     id="use5825"
     transform="matrix(0.38595046,-0.92251951,0.92251951,0.38595046,10.100714,-246.87975)"
     width="100%"
     height="100%" />
  <use
     height="100%"
     width="100%"
     transform="matrix(-0.93351145,-0.35854762,0.35854762,-0.93351145,-157.18774,-237.25733)"
     id="use5813"
     xlink:href="#g5194"
     y="0"
     x="0" />
  <use
     height="100%"
     width="100%"
     transform="matrix(0.55794394,-0.82987864,0.82987864,0.55794394,10.432424,-214.26714)"
     id="use5821"
     xlink:href="#g5194"
     y="0"
     x="0" />
  <use
     x="0"
     y="0"
     xlink:href="#g5194"
     id="use5819"
     transform="matrix(0.68285326,-0.73055556,0.73055556,0.68285326,0.36102812,-189.29458)"
     width="100%"
     height="100%" />
  <use
     height="100%"
     width="100%"
     transform="matrix(-0.53462186,0.84509139,-0.84509139,-0.53462186,-223.74077,-47.176307)"
     id="use5801"
     xlink:href="#g5194"
     y="0"
     x="0" />
  <use
     height="100%"
     width="100%"
     transform="matrix(0.32879556,-0.94440111,0.94440111,0.32879556,-19.462609,-193.13317)"
     id="use5799"
     xlink:href="#g5194"
     y="0"
     x="0" />
  <use
     x="0"
     y="0"
     xlink:href="#g5194"
     id="use5811"
     transform="matrix(0.99939902,-0.03466408,0.03466408,0.99939902,46.128094,-73.105554)"
     width="100%"
     height="100%" />
  <use
     height="100%"
     width="100%"
     transform="matrix(0.61996578,-0.78462885,0.78462885,0.61996578,50.860654,-185.70167)"
     id="use5809"
     xlink:href="#g5194"
     y="0"
     x="0" />
  <use
     x="0"
     y="0"
     xlink:href="#g5194"
     id="use5793"
     transform="matrix(-0.77350011,-0.63379617,0.63379617,-0.77350011,-126.01514,-210.84448)"
     width="100%"
     height="100%" />
  <use
     x="0"
     y="0"
     xlink:href="#g5194"
     id="use5797"
     transform="matrix(-0.62018876,0.7844526,-0.7844526,-0.62018876,-221.87546,-21.478633)"
     width="100%"
     height="100%" />
  <use
     height="100%"
     width="100%"
     transform="matrix(-0.99915445,-0.04111407,0.04111407,-0.99915445,-244.44118,-132.82225)"
     id="use5795"
     xlink:href="#g5194"
     y="0"
     x="0" />
  <use
     height="100%"
     width="100%"
     transform="matrix(0.61723034,-0.7867825,0.7867825,0.61723034,33.614554,-156.21608)"
     id="use5791"
     xlink:href="#g5194"
     y="0"
     x="0" />
  <use
     x="0"
     y="0"
     xlink:href="#g5194"
     id="use5807"
     transform="matrix(-0.93351145,-0.35854762,0.35854762,-0.93351145,-124.00404,-235.91376)"
     width="100%"
     height="100%" />
  <use
     height="100%"
     width="100%"
     transform="matrix(0.20364974,-0.97904382,0.97904382,0.20364974,48.715014,-236.06012)"
     id="use5805"
     xlink:href="#g5194"
     y="0"
     x="0" />
  <use
     x="0"
     y="0"
     xlink:href="#g5194"
     id="use5803"
     transform="matrix(0.99999209,-0.00397798,0.00397798,0.99999209,79.772034,-71.847629)"
     width="100%"
     height="100%" />
  <use
     height="100%"
     width="100%"
     transform="matrix(-0.96614449,-0.25800157,0.25800157,-0.96614449,-145.59919,-162.26016)"
     id="use5787"
     xlink:href="#g5194"
     y="0"
     x="0" />
  <use
     x="0"
     y="0"
     xlink:href="#g5194"
     id="use5785"
     transform="matrix(-0.99418678,0.10766911,-0.10766911,-0.99418678,-155.91022,-130.02558)"
     width="100%"
     height="100%" />
  <use
     height="100%"
     width="100%"
     transform="matrix(-0.86513958,-0.50153116,0.50153116,-0.86513958,-101.78098,-191.26213)"
     id="use5783"
     xlink:href="#g5194"
     y="0"
     x="0" />
  <use
     x="0"
     y="0"
     xlink:href="#g5194"
     id="use5781"
     transform="matrix(0.65111972,-0.75897504,0.75897504,0.65111972,93.956504,-131.4239)"
     width="100%"
     height="100%" />
</svg>
